<svg width="36" height="35" viewBox="0 0 36 35" fill="none" xmlns="http://www.w3.org/2000/svg">
<path d="M31.0286 14.7338C31.0286 24.8672 17.9999 33.553 17.9999 33.553C17.9999 33.553 4.97119 24.8672 4.97119 14.7338C4.97119 11.2783 6.34385 7.96444 8.78721 5.52109C11.2306 3.07774 14.5445 1.70508 17.9999 1.70508C21.4553 1.70508 24.7692 3.07774 27.2125 5.52109C29.6559 7.96444 31.0286 11.2783 31.0286 14.7338Z" fill="#00AFEF"/>
<circle cx="18" cy="14.3701" r="11.3701" fill="white"/>
<path fill-rule="evenodd" clip-rule="evenodd" d="M23.5926 22.2275C23.9682 22.2275 24.1877 22.2969 24.4015 22.4009C22.6567 23.7817 20.4497 24.6021 18.0578 24.6021C15.6659 24.6021 13.4589 23.7817 11.7141 22.4009C11.9279 22.2969 12.1474 22.2275 12.523 22.2275C13.0314 22.2275 13.2625 22.3546 13.5629 22.5222C13.9442 22.7302 14.418 22.9902 15.2962 22.9902C16.1743 22.9902 16.6423 22.7302 17.0236 22.5222C17.3356 22.3489 17.5494 22.2275 18.0636 22.2275C18.5778 22.2275 18.7973 22.3546 19.1035 22.5222C19.4848 22.7302 19.9528 22.9902 20.831 22.9902C21.7092 22.9902 22.1714 22.7302 22.5527 22.5222C22.8647 22.3489 23.09 22.2275 23.5926 22.2275Z" fill="#00AFEF"/>
<path fill-rule="evenodd" clip-rule="evenodd" d="M25.9728 20.881C25.8284 21.0601 25.6782 21.2277 25.5106 21.3895C25.4471 21.3606 25.3951 21.3259 25.3315 21.2912C24.9444 21.0833 24.4765 20.8233 23.5983 20.8233C22.7201 20.8233 22.2579 21.0833 21.8766 21.2912C21.5646 21.4646 21.3451 21.5859 20.8309 21.5859C20.3167 21.5859 20.0971 21.4588 19.7794 21.2912C19.4038 21.0833 18.9301 20.8233 18.0577 20.8233C17.1853 20.8233 16.7115 21.0833 16.3302 21.2912C16.0182 21.4646 15.7929 21.5859 15.2902 21.5859C14.7876 21.5859 14.5507 21.4588 14.2445 21.2912C13.8632 21.0833 13.3952 20.8233 12.5113 20.8233C11.6273 20.8233 11.1709 21.0833 10.7896 21.2912C10.7202 21.3259 10.6567 21.3606 10.5989 21.3895C10.4314 21.2219 10.2812 21.0601 10.1367 20.881C10.7665 20.8175 11.1593 20.6037 11.4771 20.4304C11.7833 20.2571 12.0086 20.1357 12.5113 20.1357C13.0139 20.1357 13.2508 20.2628 13.5512 20.4304C13.9325 20.6384 14.4063 20.8984 15.2845 20.8984C16.1626 20.8984 16.6306 20.6384 17.0062 20.4304C17.3239 20.2571 17.5377 20.1357 18.0577 20.1357C18.5776 20.1357 18.7914 20.2628 19.0976 20.4304C19.4789 20.6384 19.9469 20.8984 20.8251 20.8984C21.7033 20.8984 22.1655 20.6384 22.5468 20.4304C22.8588 20.2571 23.0841 20.1357 23.5867 20.1357C24.0894 20.1357 24.3205 20.2628 24.6325 20.4304C24.9502 20.6037 25.3315 20.8175 25.9671 20.881H25.9728Z" fill="#00AFEF"/>
<path fill-rule="evenodd" clip-rule="evenodd" d="M14.9784 11.2152C14.8455 11.2961 14.6664 11.325 14.4353 11.3076C14.4989 10.9783 14.6202 10.7646 14.7935 10.6663C14.834 10.6432 14.8744 10.6317 14.9264 10.6259H14.9495C14.9495 10.6259 14.9553 10.6259 14.9553 10.6201C15.0362 10.6201 15.0997 10.6432 15.1459 10.6894C15.2037 10.7472 15.2153 10.805 15.2095 10.8801C15.1864 11.0245 15.1113 11.1401 14.9842 11.221L14.9784 11.2152Z" fill="#00AFEF"/>
<path fill-rule="evenodd" clip-rule="evenodd" d="M11.7488 10.8749C11.6043 10.8749 11.5061 10.9442 11.4368 11.0771C11.3674 11.2216 11.3212 11.3891 11.2866 11.5913C11.2808 11.6953 11.2808 11.8051 11.2808 11.9149C11.275 12.0188 11.3039 12.1113 11.3501 12.1922C11.4021 12.2846 11.4657 12.3308 11.5639 12.3308C11.6621 12.3366 11.7545 12.2962 11.8239 12.2153C11.8932 12.1286 11.9394 12.042 11.9683 11.9495C11.9914 11.8571 12.0145 11.7473 12.0261 11.6202C12.0896 11.1291 11.9972 10.8807 11.7545 10.8749H11.7488ZM11.7488 10.8749C11.6043 10.8749 11.5061 10.9442 11.4368 11.0771C11.3674 11.2216 11.3212 11.3891 11.2866 11.5913C11.2808 11.6953 11.2808 11.8051 11.2808 11.9149C11.275 12.0188 11.3039 12.1113 11.3501 12.1922C11.4021 12.2846 11.4657 12.3308 11.5639 12.3308C11.6621 12.3366 11.7545 12.2962 11.8239 12.2153C11.8932 12.1286 11.9394 12.042 11.9683 11.9495C11.9914 11.8571 12.0145 11.7473 12.0261 11.6202C12.0896 11.1291 11.9972 10.8807 11.7545 10.8749H11.7488ZM11.7488 10.8749C11.6043 10.8749 11.5061 10.9442 11.4368 11.0771C11.3674 11.2216 11.3212 11.3891 11.2866 11.5913C11.2808 11.6953 11.2808 11.8051 11.2808 11.9149C11.275 12.0188 11.3039 12.1113 11.3501 12.1922C11.4021 12.2846 11.4657 12.3308 11.5639 12.3308C11.6621 12.3366 11.7545 12.2962 11.8239 12.2153C11.8932 12.1286 11.9394 12.042 11.9683 11.9495C11.9914 11.8571 12.0145 11.7473 12.0261 11.6202C12.0896 11.1291 11.9972 10.8807 11.7545 10.8749H11.7488ZM21.3567 10.9096C21.3105 10.7651 21.2123 10.6958 21.091 10.6958C20.9697 10.6958 20.8541 10.7651 20.7674 10.9096C20.6808 11.054 20.6288 11.2273 20.5999 11.4353C20.5768 11.6549 20.5883 11.8224 20.6461 11.9611C20.7039 12.0997 20.7905 12.1633 20.9119 12.1633C21.0448 12.1633 21.1545 12.094 21.2354 11.9611C21.3279 11.8166 21.3914 11.6491 21.4087 11.4353C21.4376 11.2216 21.4203 11.0482 21.3567 10.9096ZM24.7712 10.586C24.6615 10.586 24.5575 10.6149 24.4881 10.6669C24.4073 10.7247 24.3553 10.8056 24.3437 10.9211C24.3264 11.0309 24.361 11.1176 24.4304 11.1927C24.4997 11.2678 24.5806 11.3024 24.6615 11.3024H24.8637L24.9503 10.6034C24.8695 10.586 24.7886 10.586 24.7712 10.586ZM24.7712 10.586C24.6615 10.586 24.5575 10.6149 24.4881 10.6669C24.4073 10.7247 24.3553 10.8056 24.3437 10.9211C24.3264 11.0309 24.361 11.1176 24.4304 11.1927C24.4997 11.2678 24.5806 11.3024 24.6615 11.3024H24.8637L24.9503 10.6034C24.8695 10.586 24.7886 10.586 24.7712 10.586ZM21.3567 10.9096C21.3105 10.7651 21.2123 10.6958 21.091 10.6958C20.9697 10.6958 20.8541 10.7651 20.7674 10.9096C20.6808 11.054 20.6288 11.2273 20.5999 11.4353C20.5768 11.6549 20.5883 11.8224 20.6461 11.9611C20.7039 12.0997 20.7905 12.1633 20.9119 12.1633C21.0448 12.1633 21.1545 12.094 21.2354 11.9611C21.3279 11.8166 21.3914 11.6491 21.4087 11.4353C21.4376 11.2216 21.4203 11.0482 21.3567 10.9096ZM11.7488 10.8749C11.6043 10.8749 11.5061 10.9442 11.4368 11.0771C11.3674 11.2216 11.3212 11.3891 11.2866 11.5913C11.2808 11.6953 11.2808 11.8051 11.2808 11.9149C11.275 12.0188 11.3039 12.1113 11.3501 12.1922C11.4021 12.2846 11.4657 12.3308 11.5639 12.3308C11.6621 12.3366 11.7545 12.2962 11.8239 12.2153C11.8932 12.1286 11.9394 12.042 11.9683 11.9495C11.9914 11.8571 12.0145 11.7473 12.0261 11.6202C12.0896 11.1291 11.9972 10.8807 11.7545 10.8749H11.7488ZM11.7488 10.8749C11.6043 10.8749 11.5061 10.9442 11.4368 11.0771C11.3674 11.2216 11.3212 11.3891 11.2866 11.5913C11.2808 11.6953 11.2808 11.8051 11.2808 11.9149C11.275 12.0188 11.3039 12.1113 11.3501 12.1922C11.4021 12.2846 11.4657 12.3308 11.5639 12.3308C11.6621 12.3366 11.7545 12.2962 11.8239 12.2153C11.8932 12.1286 11.9394 12.042 11.9683 11.9495C11.9914 11.8571 12.0145 11.7473 12.0261 11.6202C12.0896 11.1291 11.9972 10.8807 11.7545 10.8749H11.7488ZM21.3567 10.9096C21.3105 10.7651 21.2123 10.6958 21.091 10.6958C20.9697 10.6958 20.8541 10.7651 20.7674 10.9096C20.6808 11.054 20.6288 11.2273 20.5999 11.4353C20.5768 11.6549 20.5883 11.8224 20.6461 11.9611C20.7039 12.0997 20.7905 12.1633 20.9119 12.1633C21.0448 12.1633 21.1545 12.094 21.2354 11.9611C21.3279 11.8166 21.3914 11.6491 21.4087 11.4353C21.4376 11.2216 21.4203 11.0482 21.3567 10.9096ZM23.1998 14.1392C23.142 14.0005 23.0553 13.937 22.934 13.937C22.8127 13.937 22.6971 14.0063 22.6105 14.1392C22.518 14.2778 22.4602 14.457 22.4429 14.6707C22.414 14.8729 22.4314 15.0578 22.4776 15.1907C22.5296 15.3236 22.6278 15.3929 22.7491 15.3929C22.8704 15.3929 22.9918 15.3178 23.0727 15.1907C23.1651 15.052 23.2229 14.8729 23.246 14.6707C23.2691 14.4512 23.2575 14.2721 23.194 14.1392H23.1998ZM24.7712 10.586C24.6615 10.586 24.5575 10.6149 24.4881 10.6669C24.4073 10.7247 24.3553 10.8056 24.3437 10.9211C24.3264 11.0309 24.361 11.1176 24.4304 11.1927C24.4997 11.2678 24.5806 11.3024 24.6615 11.3024H24.8637L24.9503 10.6034C24.8695 10.586 24.7886 10.586 24.7712 10.586ZM24.7712 10.586C24.6615 10.586 24.5575 10.6149 24.4881 10.6669C24.4073 10.7247 24.3553 10.8056 24.3437 10.9211C24.3264 11.0309 24.361 11.1176 24.4304 11.1927C24.4997 11.2678 24.5806 11.3024 24.6615 11.3024H24.8637L24.9503 10.6034C24.8695 10.586 24.7886 10.586 24.7712 10.586ZM23.1998 14.1392C23.142 14.0005 23.0553 13.937 22.934 13.937C22.8127 13.937 22.6971 14.0063 22.6105 14.1392C22.518 14.2778 22.4602 14.457 22.4429 14.6707C22.414 14.8729 22.4314 15.0578 22.4776 15.1907C22.5296 15.3236 22.6278 15.3929 22.7491 15.3929C22.8704 15.3929 22.9918 15.3178 23.0727 15.1907C23.1651 15.052 23.2229 14.8729 23.246 14.6707C23.2691 14.4512 23.2575 14.2721 23.194 14.1392H23.1998ZM21.3567 10.9096C21.3105 10.7651 21.2123 10.6958 21.091 10.6958C20.9697 10.6958 20.8541 10.7651 20.7674 10.9096C20.6808 11.054 20.6288 11.2273 20.5999 11.4353C20.5768 11.6549 20.5883 11.8224 20.6461 11.9611C20.7039 12.0997 20.7905 12.1633 20.9119 12.1633C21.0448 12.1633 21.1545 12.094 21.2354 11.9611C21.3279 11.8166 21.3914 11.6491 21.4087 11.4353C21.4376 11.2216 21.4203 11.0482 21.3567 10.9096ZM11.7488 10.8749C11.6043 10.8749 11.5061 10.9442 11.4368 11.0771C11.3674 11.2216 11.3212 11.3891 11.2866 11.5913C11.2808 11.6953 11.2808 11.8051 11.2808 11.9149C11.275 12.0188 11.3039 12.1113 11.3501 12.1922C11.4021 12.2846 11.4657 12.3308 11.5639 12.3308C11.6621 12.3366 11.7545 12.2962 11.8239 12.2153C11.8932 12.1286 11.9394 12.042 11.9683 11.9495C11.9914 11.8571 12.0145 11.7473 12.0261 11.6202C12.0896 11.1291 11.9972 10.8807 11.7545 10.8749H11.7488ZM11.7488 10.8749C11.6043 10.8749 11.5061 10.9442 11.4368 11.0771C11.3674 11.2216 11.3212 11.3891 11.2866 11.5913C11.2808 11.6953 11.2808 11.8051 11.2808 11.9149C11.275 12.0188 11.3039 12.1113 11.3501 12.1922C11.4021 12.2846 11.4657 12.3308 11.5639 12.3308C11.6621 12.3366 11.7545 12.2962 11.8239 12.2153C11.8932 12.1286 11.9394 12.042 11.9683 11.9495C11.9914 11.8571 12.0145 11.7473 12.0261 11.6202C12.0896 11.1291 11.9972 10.8807 11.7545 10.8749H11.7488ZM13.7189 14.2027C13.6611 14.0641 13.5687 14.0005 13.4416 14.0005C13.3145 14.0005 13.2105 14.0641 13.118 14.197C13.0371 14.3356 12.9736 14.5089 12.9447 14.7227C12.9216 14.9365 12.9389 15.1156 12.9967 15.2485C13.0545 15.3871 13.1411 15.4507 13.2625 15.4507C13.3838 15.4507 13.4993 15.3814 13.586 15.2485C13.6784 15.1098 13.7362 14.9307 13.7536 14.7227C13.7882 14.5089 13.7767 14.3356 13.7247 14.2027H13.7189ZM16.9196 13.9081C16.8734 13.8561 16.8099 13.833 16.7232 13.833V13.8445H16.7059C16.6539 13.8503 16.6076 13.8676 16.5672 13.8908C16.3997 13.9832 16.2783 14.197 16.2148 14.5263C16.4459 14.5436 16.625 14.5205 16.7579 14.4454C16.8965 14.3703 16.9716 14.2547 16.9832 14.0987C17.0005 14.0236 16.9774 13.9601 16.9254 13.9139L16.9196 13.9081ZM21.3625 10.9096C21.3163 10.7651 21.2181 10.6958 21.0968 10.6958C20.9754 10.6958 20.8599 10.7651 20.7732 10.9096C20.6866 11.054 20.6346 11.2273 20.6057 11.4353C20.5826 11.6549 20.5941 11.8224 20.6519 11.9611C20.7097 12.0997 20.7963 12.1633 20.9177 12.1633C21.0505 12.1633 21.1603 12.094 21.2412 11.9611C21.3336 11.8166 21.3972 11.6491 21.4145 11.4353C21.4434 11.2216 21.4261 11.0482 21.3625 10.9096ZM23.2055 14.1392C23.1478 14.0005 23.0611 13.937 22.9398 13.937C22.8185 13.937 22.7029 14.0063 22.6162 14.1392C22.5238 14.2778 22.466 14.457 22.4487 14.6707C22.4198 14.8729 22.4371 15.0578 22.4834 15.1907C22.5354 15.3236 22.6336 15.3929 22.7549 15.3929C22.8762 15.3929 22.9976 15.3178 23.0784 15.1907C23.1709 15.052 23.2287 14.8729 23.2518 14.6707C23.2749 14.4512 23.2633 14.2721 23.1998 14.1392H23.2055ZM24.777 10.586C24.6673 10.586 24.5633 10.6149 24.4939 10.6669C24.413 10.7247 24.361 10.8056 24.3495 10.9211C24.3322 11.0309 24.3668 11.1176 24.4362 11.1927C24.5055 11.2678 24.5864 11.3024 24.6673 11.3024H24.8695L24.9561 10.6034C24.8752 10.586 24.7944 10.586 24.777 10.586ZM24.777 10.586C24.6673 10.586 24.5633 10.6149 24.4939 10.6669C24.413 10.7247 24.361 10.8056 24.3495 10.9211C24.3322 11.0309 24.3668 11.1176 24.4362 11.1927C24.5055 11.2678 24.5864 11.3024 24.6673 11.3024H24.8695L24.9561 10.6034C24.8752 10.586 24.7944 10.586 24.777 10.586ZM23.2055 14.1392C23.1478 14.0005 23.0611 13.937 22.9398 13.937C22.8185 13.937 22.7029 14.0063 22.6162 14.1392C22.5238 14.2778 22.466 14.457 22.4487 14.6707C22.4198 14.8729 22.4371 15.0578 22.4834 15.1907C22.5354 15.3236 22.6336 15.3929 22.7549 15.3929C22.8762 15.3929 22.9976 15.3178 23.0784 15.1907C23.1709 15.052 23.2287 14.8729 23.2518 14.6707C23.2749 14.4512 23.2633 14.2721 23.1998 14.1392H23.2055ZM21.3625 10.9096C21.3163 10.7651 21.2181 10.6958 21.0968 10.6958C20.9754 10.6958 20.8599 10.7651 20.7732 10.9096C20.6866 11.054 20.6346 11.2273 20.6057 11.4353C20.5826 11.6549 20.5941 11.8224 20.6519 11.9611C20.7097 12.0997 20.7963 12.1633 20.9177 12.1633C21.0505 12.1633 21.1603 12.094 21.2412 11.9611C21.3336 11.8166 21.3972 11.6491 21.4145 11.4353C21.4434 11.2216 21.4261 11.0482 21.3625 10.9096ZM16.9196 13.9081C16.8734 13.8561 16.8099 13.833 16.7232 13.833V13.8445H16.7059C16.6539 13.8503 16.6076 13.8676 16.5672 13.8908C16.3997 13.9832 16.2783 14.197 16.2148 14.5263C16.4459 14.5436 16.625 14.5205 16.7579 14.4454C16.8965 14.3703 16.9716 14.2547 16.9832 14.0987C17.0005 14.0236 16.9774 13.9601 16.9254 13.9139L16.9196 13.9081ZM13.7189 14.2027C13.6611 14.0641 13.5687 14.0005 13.4416 14.0005C13.3145 14.0005 13.2105 14.0641 13.118 14.197C13.0371 14.3356 12.9736 14.5089 12.9447 14.7227C12.9216 14.9365 12.9389 15.1156 12.9967 15.2485C13.0545 15.3871 13.1411 15.4507 13.2625 15.4507C13.3838 15.4507 13.4993 15.3814 13.586 15.2485C13.6784 15.1098 13.7362 14.9307 13.7536 14.7227C13.7882 14.5089 13.7767 14.3356 13.7247 14.2027H13.7189ZM11.7488 10.8749C11.6043 10.8749 11.5061 10.9442 11.4368 11.0771C11.3674 11.2216 11.3212 11.3891 11.2866 11.5913C11.2808 11.6953 11.2808 11.8051 11.2808 11.9149C11.275 12.0188 11.3039 12.1113 11.3501 12.1922C11.4021 12.2846 11.4657 12.3308 11.5639 12.3308C11.6621 12.3366 11.7545 12.2962 11.8239 12.2153C11.8932 12.1286 11.9394 12.042 11.9683 11.9495C11.9914 11.8571 12.0145 11.7473 12.0261 11.6202C12.0896 11.1291 11.9972 10.8807 11.7545 10.8749H11.7488ZM18.0578 4.0459C12.3785 4.0459 7.7854 8.64479 7.7854 14.3241C7.7854 16.1729 8.26493 17.9061 9.12 19.4025C9.29333 19.466 9.48398 19.5007 9.76708 19.5007C10.2697 19.5007 10.495 19.3736 10.7955 19.2003C11.1826 18.9981 11.6505 18.7265 12.5172 18.7265C13.3838 18.7265 13.8691 18.9923 14.2504 19.2003C14.5566 19.3736 14.782 19.5007 15.2961 19.5007C15.8103 19.5007 16.0299 19.3736 16.3419 19.2003C16.7232 18.9981 17.1912 18.7265 18.0693 18.7265C18.9475 18.7265 19.4155 18.9923 19.791 19.2003C20.1088 19.3736 20.3168 19.5007 20.8425 19.5007C21.3683 19.5007 21.5763 19.3736 21.8883 19.2003C22.2696 18.9981 22.7376 18.7265 23.61 18.7265C24.4824 18.7265 24.9503 18.9923 25.3432 19.2003C25.6494 19.3736 25.869 19.5007 26.3716 19.5007C26.6432 19.5007 26.8396 19.466 27.0071 19.4083C27.8507 17.9119 28.3417 16.1729 28.3417 14.3241C28.3302 8.64479 23.7371 4.0459 18.0578 4.0459ZM14.1406 8.09015C16.0472 6.2529 19.3 8.49457 22.0558 6.91732C22.362 6.74399 22.518 6.36845 22.3043 7.16575C22.1656 7.66261 21.7207 8.44257 20.4728 8.74878C19.8661 8.899 19.1555 8.899 18.4738 8.81233C17.3703 8.6679 16.1339 8.05548 15.1575 8.07859C14.7588 8.09015 14.366 8.19414 14.0135 8.44835C13.5918 8.75456 13.9615 8.2577 14.1464 8.09015H14.1406ZM13.3434 11.4758C13.3896 11.0713 13.5745 10.7189 13.9038 10.4358C14.2215 10.1412 14.6028 10.0025 15.0593 10.0025C15.4695 10.0025 15.7699 10.1007 15.9663 10.3087C16.157 10.5051 16.2379 10.7189 16.2205 10.95C16.1974 11.1464 16.1223 11.3198 15.9837 11.4527C15.8566 11.5971 15.7121 11.6838 15.5388 11.7242C15.3655 11.7704 15.1806 11.8051 14.9784 11.8166C14.782 11.8282 14.5913 11.8166 14.418 11.782C14.4757 12.0477 14.6606 12.1979 14.9668 12.2442C15.2788 12.2788 15.6081 12.1979 15.9606 12.0131C15.9837 11.9957 16.0183 11.9957 16.0357 12.0073C16.053 12.0304 16.053 12.0593 16.0357 12.094C15.9721 12.2557 15.8046 12.4406 15.5446 12.6544C15.2846 12.8566 14.9784 12.9664 14.626 12.9664C14.2215 12.9664 13.8922 12.8161 13.638 12.533C13.3896 12.2384 13.2914 11.8917 13.3491 11.4815L13.3434 11.4758ZM10.7897 12.7179C10.599 12.5677 10.4604 12.4002 10.3679 12.1864C10.2813 11.9842 10.2351 11.7589 10.2582 11.5335C10.3217 10.3087 10.6626 9.56919 11.2866 9.31498C11.4483 9.25143 11.6159 9.2052 11.7777 9.16476C11.951 9.14165 12.0896 9.1301 12.1879 9.1301C12.2918 9.11854 12.3727 9.10121 12.4421 9.06654C12.5172 9.03188 12.5576 8.96833 12.5807 8.88167C12.5865 8.847 12.6038 8.82967 12.6385 8.82389H12.6674C12.8696 8.82389 13.0314 8.899 13.1411 9.05499C13.2509 9.21098 13.2856 9.37853 13.2278 9.55763C13.1643 9.72518 13.0545 9.85228 12.8927 9.93317C12.7367 10.0025 12.5692 10.0256 12.4016 10.0198C12.2341 10.0083 12.0492 10.0141 11.8354 10.0256C11.6332 10.0372 11.4772 10.0834 11.3674 10.1585C11.1363 10.3145 11.0035 10.5629 10.9457 10.9038C11.0266 10.7247 11.1479 10.586 11.327 10.4763C11.5003 10.3723 11.6852 10.3087 11.8759 10.3029C12.2803 10.2914 12.5923 10.4127 12.8176 10.6785C13.0487 10.9385 13.1411 11.2678 13.0891 11.6722C13.0429 12.0766 12.8696 12.4002 12.5865 12.637C12.3034 12.8739 11.9336 12.9837 11.4946 12.9721C11.223 12.9548 10.9861 12.8797 10.7955 12.7295L10.7897 12.7179ZM14.8571 14.7285C14.8051 15.1271 14.678 15.468 14.4411 15.7569C14.2158 16.0515 13.9327 16.1902 13.6033 16.1902C13.2509 16.1902 13.0083 16.0169 12.858 15.676C12.7772 16.1382 12.6847 16.4502 12.5172 16.6697C12.3554 16.8835 12.107 16.9991 11.7199 17.0568H11.535L11.5234 17.0395C11.7141 15.4102 11.8412 14.7054 11.8701 14.457C11.8874 14.2547 11.8932 14.093 11.8759 13.9832C11.8643 13.8792 11.8239 13.8041 11.8008 13.781C11.7545 13.7463 11.7257 13.7232 11.7025 13.7059C11.6852 13.6943 11.6794 13.6597 11.691 13.6365C11.743 13.5441 11.8296 13.4574 11.9683 13.3708C12.1127 13.2899 12.2514 13.2437 12.3958 13.2437C12.5807 13.2437 12.7367 13.3015 12.858 13.4112C12.9851 13.521 13.0429 13.6712 13.0545 13.8619C13.3145 13.4517 13.6265 13.2379 13.9847 13.2379C14.21 13.2379 14.3891 13.3188 14.5335 13.4632C14.678 13.6134 14.782 13.7983 14.8339 14.0179C14.8802 14.2374 14.8975 14.4801 14.8571 14.7285ZM16.7405 15.4622C17.0525 15.5085 17.3818 15.4333 17.7343 15.2369C17.7574 15.2196 17.7805 15.2196 17.8036 15.2254C17.8267 15.2485 17.8267 15.2831 17.8094 15.3178C17.74 15.4853 17.5783 15.6702 17.3125 15.8782C17.0525 16.0747 16.7463 16.1844 16.3997 16.1844C15.9894 16.1844 15.6601 16.0458 15.4117 15.7569C15.1633 15.4622 15.0593 15.1156 15.1055 14.7054C15.1633 14.2952 15.3481 13.9543 15.6659 13.6597C15.9894 13.3766 16.3823 13.2321 16.833 13.2321C17.2374 13.2321 17.5436 13.3303 17.7343 13.5326C17.9307 13.7348 18.0174 13.9485 17.9942 14.1796C17.9654 14.3818 17.8902 14.5436 17.7631 14.6881C17.6303 14.8209 17.4858 14.9134 17.3125 14.9538C17.1392 15.0058 16.9543 15.0347 16.7463 15.052C16.5556 15.0636 16.365 15.052 16.1859 15.0058C16.2494 15.2658 16.4285 15.4218 16.7405 15.4565V15.4622ZM17.948 12.8508C17.948 12.8508 17.9249 12.8393 17.9249 12.8277L18.1965 10.6265H17.8151C17.74 11.1349 17.6707 11.6144 17.5609 12.0362C17.3992 12.6601 17.1681 12.9664 16.6539 12.9664C16.2263 12.9664 15.949 12.6197 15.9663 12.5273C15.9721 12.5042 16.4574 12.4522 16.7174 11.5509C16.9485 10.7709 16.9947 10.1469 16.9947 10.1469C16.9947 10.1296 17.0063 10.1238 17.0178 10.1238C17.7747 9.95628 18.5142 9.96206 19.3288 10.1296C19.3346 10.1296 19.3404 10.1354 19.3404 10.1469L19.0053 12.8219C19.0053 12.8219 18.9995 12.845 18.988 12.845H17.9422L17.948 12.8508ZM21.1256 15.8551C20.9292 16.0342 20.7154 16.1266 20.4728 16.1382C20.3803 16.144 20.2879 16.1382 20.207 16.1266C20.1204 16.1151 20.051 16.1035 19.9875 16.0689C19.9239 16.0515 19.8777 16.0111 19.8315 15.9764L19.7102 15.8493C19.6755 15.8031 19.6466 15.7569 19.6235 15.6933C19.6004 15.6298 19.5888 15.5778 19.5657 15.5373C19.5542 15.4911 19.5426 15.4391 19.5368 15.364C19.5311 15.2947 19.5253 15.2369 19.5253 15.208C19.5253 15.1734 19.5195 15.1214 19.5195 15.052C19.5079 14.9885 19.5079 14.9423 19.5079 14.9249H19.4617C19.4617 14.9249 19.3635 14.9307 19.352 14.9307L19.196 16.04C19.196 16.04 19.1844 16.0573 19.1728 16.0573H18.1156V16.04L18.3929 14.4338C18.416 14.2778 18.4449 14.0005 18.3467 13.8445C18.2889 13.7637 18.1676 13.7001 18.1329 13.6885C18.104 13.6654 18.0982 13.6365 18.1098 13.6134C18.1618 13.5152 18.2485 13.4343 18.3871 13.3477C18.5315 13.2668 18.6644 13.2321 18.8146 13.2321C19.04 13.2321 19.2133 13.3015 19.3288 13.4517C19.4502 13.6019 19.4964 13.8041 19.4675 14.0583L19.404 14.4974C19.5426 14.4685 19.7159 14.4281 19.8199 14.3587C19.9124 14.2952 19.9759 14.2085 20.0048 14.1276C20.0279 14.0352 20.0279 13.9601 20.0106 13.8965C19.9817 13.833 19.9528 13.7694 19.9181 13.7174L19.8661 13.6308C19.8777 13.5383 19.947 13.4517 20.0684 13.3708C20.1955 13.2841 20.3283 13.2437 20.4728 13.2437C20.6923 13.2437 20.8425 13.3072 20.9581 13.4343C21.0736 13.5672 21.1199 13.7174 21.0968 13.9254C21.0679 14.2316 20.8194 14.4858 20.3515 14.6996C20.4555 15.0578 20.7039 15.3698 21.1199 15.6413C21.1488 15.6644 21.1834 15.6933 21.1834 15.7164C21.1892 15.728 21.1603 15.7742 21.1141 15.832L21.1256 15.8551ZM20.3572 12.9201C20.1435 12.9201 19.9586 12.8393 19.8084 12.6833C19.6582 12.5215 19.5599 12.3251 19.5195 12.0997C19.4617 11.8686 19.4444 11.626 19.4848 11.3775C19.5368 10.9847 19.6697 10.6438 19.9008 10.378C20.1261 10.1123 20.4092 9.96783 20.7559 9.96783C21.1025 9.96783 21.3452 10.1412 21.4896 10.4878L21.5416 10.118C21.5416 10.118 21.5416 10.1007 21.5474 10.0949C21.5532 10.0892 21.5647 10.0892 21.5647 10.0892H21.5763L22.6567 10.0834C22.6682 10.0834 22.674 10.0949 22.674 10.1123C22.5527 10.9327 22.4602 11.47 22.4371 11.7184C22.4082 11.886 22.4082 12.0246 22.4256 12.1171C22.4371 12.2153 22.4545 12.2904 22.4891 12.3424C22.5122 12.3886 22.5411 12.4233 22.5758 12.4348C22.6047 12.4522 22.6336 12.4637 22.6451 12.4868C22.6567 12.4984 22.6567 12.5157 22.6509 12.5446C22.6162 12.6428 22.518 12.7295 22.3851 12.8046C22.2465 12.8912 22.102 12.9317 21.9576 12.9317C21.7727 12.9317 21.611 12.8739 21.4838 12.7699C21.3741 12.6601 21.299 12.5042 21.2932 12.3193C21.0332 12.7237 20.7212 12.9259 20.363 12.9259L20.3572 12.9201ZM24.2628 15.3467C24.2802 15.4449 24.2975 15.5142 24.3264 15.5662C24.3495 15.6182 24.3842 15.6471 24.4188 15.6702C24.4419 15.6818 24.4766 15.6933 24.4881 15.7049C24.4997 15.7222 24.4997 15.7396 24.4939 15.7684C24.4477 15.8609 24.361 15.9475 24.2224 16.0342C24.0779 16.1151 23.9451 16.1613 23.7948 16.1613C23.61 16.1613 23.454 16.1035 23.3269 15.9938C23.2113 15.884 23.142 15.7338 23.1362 15.5316C22.8762 15.9418 22.5642 16.1382 22.206 16.1382C21.9807 16.1382 21.8074 16.0631 21.6572 15.9071C21.507 15.7453 21.4087 15.5547 21.351 15.3178C21.2932 15.0867 21.2874 14.844 21.3279 14.5956C21.3799 14.2027 21.5127 13.8734 21.7438 13.6019C21.9692 13.3303 22.2523 13.1975 22.5874 13.1975C22.9398 13.1975 23.1882 13.365 23.3326 13.7059L23.3846 13.3361C23.3846 13.3361 23.3846 13.3246 23.3904 13.3246C23.3962 13.3188 23.3962 13.3072 23.3962 13.3072H24.4997C24.4997 13.3072 24.5113 13.3188 24.5113 13.3303C24.3842 14.1565 24.309 14.6881 24.2744 14.9365C24.2513 15.1156 24.2513 15.2485 24.2628 15.3409V15.3467ZM25.8228 12.8393C25.6725 12.9144 25.5397 12.9548 25.3952 12.9548C25.2103 12.9548 25.0486 12.897 24.9215 12.7873C24.8059 12.6775 24.7366 12.5273 24.7308 12.3424L24.8059 11.7646H24.6326C24.6326 11.7646 24.5517 12.2499 24.3668 12.533C24.0491 13.0357 23.4251 13.0299 23.1709 12.8277C23.0669 12.7353 22.9918 12.6313 22.9513 12.5273C22.9398 12.4579 22.934 12.4175 22.9398 12.3944C22.9513 12.3713 22.9687 12.3482 23.0207 12.3193C23.4598 12.0651 23.7197 11.8513 23.7948 11.6838C23.6157 11.6202 23.4771 11.522 23.3846 11.3833C23.298 11.2504 23.2633 11.0887 23.2922 10.8922C23.3211 10.6091 23.4829 10.3838 23.7717 10.2336C24.0548 10.0718 24.3784 9.99672 24.7539 9.99672C24.9677 9.99672 25.1814 10.0025 25.401 10.0198C25.6148 10.0429 25.7823 10.0661 25.8921 10.0834L26.0538 10.118L26.0712 10.1296L25.9036 11.4989H25.9094C25.8979 11.5971 25.8921 11.6722 25.8863 11.7357C25.8574 11.9091 25.8574 12.0477 25.869 12.146C25.8863 12.2326 25.9036 12.3077 25.9325 12.3597C25.9614 12.4117 25.9903 12.4464 26.025 12.4579C26.0481 12.4695 26.0827 12.481 26.0943 12.5099C26.1058 12.5215 26.1058 12.5388 26.1001 12.5735C26.0539 12.6601 25.9672 12.7468 25.8343 12.8335L25.8228 12.8393ZM24.4881 10.6727C24.4073 10.7305 24.3553 10.8113 24.3437 10.9269C24.3264 11.0367 24.361 11.1233 24.4304 11.1984C24.4997 11.2735 24.5806 11.3082 24.6615 11.3082H24.8637L24.9503 10.6091C24.8695 10.5918 24.7886 10.5918 24.7712 10.5918C24.6615 10.5918 24.5575 10.6207 24.4881 10.6727ZM22.934 13.937C22.8069 13.937 22.6971 14.0063 22.6105 14.1392C22.518 14.2778 22.4602 14.457 22.4429 14.6707C22.414 14.8729 22.4314 15.0578 22.4776 15.1907C22.5296 15.3236 22.6278 15.3929 22.7491 15.3929C22.8704 15.3929 22.9918 15.3178 23.0727 15.1907C23.1651 15.052 23.2229 14.8729 23.246 14.6707C23.2691 14.4512 23.2575 14.2721 23.194 14.1392C23.1362 14.0005 23.0496 13.937 22.9282 13.937H22.934ZM21.091 10.7016C20.9639 10.7016 20.8541 10.7709 20.7674 10.9153C20.6808 11.0598 20.6288 11.2331 20.5999 11.4411C20.5768 11.6606 20.5883 11.8282 20.6461 11.9668C20.7039 12.1055 20.7905 12.1691 20.9119 12.1691C21.0448 12.1691 21.1545 12.0997 21.2354 11.9668C21.3279 11.8224 21.3914 11.6549 21.4087 11.4411C21.4376 11.2273 21.4203 11.054 21.3567 10.9153C21.3105 10.7709 21.2123 10.7016 21.091 10.7016ZM16.9716 14.0987C16.989 14.0236 16.9658 13.9601 16.9138 13.9139C16.8676 13.8619 16.8041 13.8388 16.7174 13.8388V13.8503H16.7001C16.6481 13.8561 16.6019 13.8734 16.5614 13.8965C16.3939 13.989 16.2725 14.2027 16.209 14.5321C16.4401 14.5494 16.6192 14.5263 16.7521 14.4512C16.8907 14.3761 16.9658 14.2605 16.9774 14.1045L16.9716 14.0987ZM13.4358 14.0005C13.3087 14.0005 13.2047 14.0641 13.1123 14.197C13.0314 14.3356 12.9678 14.5089 12.9389 14.7227C12.9158 14.9365 12.9332 15.1156 12.9909 15.2485C13.0487 15.3871 13.1354 15.4507 13.2567 15.4507C13.378 15.4507 13.4936 15.3814 13.5802 15.2485C13.6727 15.1098 13.7304 14.9307 13.7478 14.7227C13.7824 14.5089 13.7709 14.3356 13.7189 14.2027C13.6611 14.0641 13.5687 14.0005 13.4416 14.0005H13.4358ZM11.7488 10.8749C11.6043 10.8749 11.5061 10.9442 11.4368 11.0771C11.3674 11.2216 11.3212 11.3891 11.2866 11.5913C11.2808 11.6953 11.2808 11.8051 11.2808 11.9149C11.275 12.0188 11.3039 12.1113 11.3501 12.1922C11.4021 12.2846 11.4657 12.3308 11.5639 12.3308C11.6621 12.3366 11.7545 12.2962 11.8239 12.2153C11.8932 12.1286 11.9394 12.042 11.9683 11.9495C11.9914 11.8571 12.0145 11.7473 12.0261 11.6202C12.0896 11.1291 11.9972 10.8807 11.7545 10.8749H11.7488ZM11.7488 10.8749C11.6043 10.8749 11.5061 10.9442 11.4368 11.0771C11.3674 11.2216 11.3212 11.3891 11.2866 11.5913C11.2808 11.6953 11.2808 11.8051 11.2808 11.9149C11.275 12.0188 11.3039 12.1113 11.3501 12.1922C11.4021 12.2846 11.4657 12.3308 11.5639 12.3308C11.6621 12.3366 11.7545 12.2962 11.8239 12.2153C11.8932 12.1286 11.9394 12.042 11.9683 11.9495C11.9914 11.8571 12.0145 11.7473 12.0261 11.6202C12.0896 11.1291 11.9972 10.8807 11.7545 10.8749H11.7488ZM16.9138 13.9139C16.8676 13.8619 16.8041 13.8388 16.7174 13.8388V13.8503H16.7001C16.6481 13.8561 16.6019 13.8734 16.5614 13.8965C16.3939 13.989 16.2725 14.2027 16.209 14.5321C16.4401 14.5494 16.6192 14.5263 16.7521 14.4512C16.8907 14.3761 16.9658 14.2605 16.9774 14.1045C16.9947 14.0294 16.9716 13.9659 16.9196 13.9196L16.9138 13.9139ZM21.3567 10.9153C21.3105 10.7709 21.2123 10.7016 21.091 10.7016C20.9697 10.7016 20.8541 10.7709 20.7674 10.9153C20.6808 11.0598 20.6288 11.2331 20.5999 11.4411C20.5768 11.6606 20.5883 11.8282 20.6461 11.9668C20.7039 12.1055 20.7905 12.1691 20.9119 12.1691C21.0448 12.1691 21.1545 12.0997 21.2354 11.9668C21.3279 11.8224 21.3914 11.6549 21.4087 11.4411C21.4376 11.2273 21.4203 11.054 21.3567 10.9153ZM23.1998 14.145C23.142 14.0063 23.0553 13.9428 22.934 13.9428C22.8127 13.9428 22.6971 14.0121 22.6105 14.145C22.518 14.2836 22.4602 14.4627 22.4429 14.6765C22.414 14.8787 22.4314 15.0636 22.4776 15.1965C22.5296 15.3294 22.6278 15.3987 22.7491 15.3987C22.8704 15.3987 22.9918 15.3236 23.0727 15.1965C23.1651 15.0578 23.2229 14.8787 23.246 14.6765C23.2691 14.457 23.2575 14.2778 23.194 14.145H23.1998ZM24.7712 10.5918C24.6615 10.5918 24.5575 10.6207 24.4881 10.6727C24.4073 10.7305 24.3553 10.8113 24.3437 10.9269C24.3264 11.0367 24.361 11.1233 24.4304 11.1984C24.4997 11.2735 24.5806 11.3082 24.6615 11.3082H24.8637L24.9503 10.6091C24.8695 10.5918 24.7886 10.5918 24.7712 10.5918ZM24.7712 10.5918C24.6615 10.5918 24.5575 10.6207 24.4881 10.6727C24.4073 10.7305 24.3553 10.8113 24.3437 10.9269C24.3264 11.0367 24.361 11.1233 24.4304 11.1984C24.4997 11.2735 24.5806 11.3082 24.6615 11.3082H24.8637L24.9503 10.6091C24.8695 10.5918 24.7886 10.5918 24.7712 10.5918ZM23.1998 14.145C23.142 14.0063 23.0553 13.9428 22.934 13.9428C22.8127 13.9428 22.6971 14.0121 22.6105 14.145C22.518 14.2836 22.4602 14.4627 22.4429 14.6765C22.414 14.8787 22.4314 15.0636 22.4776 15.1965C22.5296 15.3294 22.6278 15.3987 22.7491 15.3987C22.8704 15.3987 22.9918 15.3236 23.0727 15.1965C23.1651 15.0578 23.2229 14.8787 23.246 14.6765C23.2691 14.457 23.2575 14.2778 23.194 14.145H23.1998ZM21.3567 10.9153C21.3105 10.7709 21.2123 10.7016 21.091 10.7016C20.9697 10.7016 20.8541 10.7709 20.7674 10.9153C20.6808 11.0598 20.6288 11.2331 20.5999 11.4411C20.5768 11.6606 20.5883 11.8282 20.6461 11.9668C20.7039 12.1055 20.7905 12.1691 20.9119 12.1691C21.0448 12.1691 21.1545 12.0997 21.2354 11.9668C21.3279 11.8224 21.3914 11.6549 21.4087 11.4411C21.4376 11.2273 21.4203 11.054 21.3567 10.9153ZM16.9138 13.9139C16.8676 13.8619 16.8041 13.8388 16.7174 13.8388V13.8503H16.7001C16.6481 13.8561 16.6019 13.8734 16.5614 13.8965C16.3939 13.989 16.2725 14.2027 16.209 14.5321C16.4401 14.5494 16.6192 14.5263 16.7521 14.4512C16.8907 14.3761 16.9658 14.2605 16.9774 14.1045C16.9947 14.0294 16.9716 13.9659 16.9196 13.9196L16.9138 13.9139ZM11.7488 10.8749C11.6043 10.8749 11.5061 10.9442 11.4368 11.0771C11.3674 11.2216 11.3212 11.3891 11.2866 11.5913C11.2808 11.6953 11.2808 11.8051 11.2808 11.9149C11.275 12.0188 11.3039 12.1113 11.3501 12.1922C11.4021 12.2846 11.4657 12.3308 11.5639 12.3308C11.6621 12.3366 11.7545 12.2962 11.8239 12.2153C11.8932 12.1286 11.9394 12.042 11.9683 11.9495C11.9914 11.8571 12.0145 11.7473 12.0261 11.6202C12.0896 11.1291 11.9972 10.8807 11.7545 10.8749H11.7488ZM11.7488 10.8749C11.6043 10.8749 11.5061 10.9442 11.4368 11.0771C11.3674 11.2216 11.3212 11.3891 11.2866 11.5913C11.2808 11.6953 11.2808 11.8051 11.2808 11.9149C11.275 12.0188 11.3039 12.1113 11.3501 12.1922C11.4021 12.2846 11.4657 12.3308 11.5639 12.3308C11.6621 12.3366 11.7545 12.2962 11.8239 12.2153C11.8932 12.1286 11.9394 12.042 11.9683 11.9495C11.9914 11.8571 12.0145 11.7473 12.0261 11.6202C12.0896 11.1291 11.9972 10.8807 11.7545 10.8749H11.7488ZM21.3567 10.9096C21.3105 10.7651 21.2123 10.6958 21.091 10.6958C20.9697 10.6958 20.8541 10.7651 20.7674 10.9096C20.6808 11.054 20.6288 11.2273 20.5999 11.4353C20.5768 11.6549 20.5883 11.8224 20.6461 11.9611C20.7039 12.0997 20.7905 12.1633 20.9119 12.1633C21.0448 12.1633 21.1545 12.094 21.2354 11.9611C21.3279 11.8166 21.3914 11.6491 21.4087 11.4353C21.4376 11.2216 21.4203 11.0482 21.3567 10.9096ZM23.1998 14.1392C23.142 14.0005 23.0553 13.937 22.934 13.937C22.8127 13.937 22.6971 14.0063 22.6105 14.1392C22.518 14.2778 22.4602 14.457 22.4429 14.6707C22.414 14.8729 22.4314 15.0578 22.4776 15.1907C22.5296 15.3236 22.6278 15.3929 22.7491 15.3929C22.8704 15.3929 22.9918 15.3178 23.0727 15.1907C23.1651 15.052 23.2229 14.8729 23.246 14.6707C23.2691 14.4512 23.2575 14.2721 23.194 14.1392H23.1998ZM24.7712 10.586C24.6615 10.586 24.5575 10.6149 24.4881 10.6669C24.4073 10.7247 24.3553 10.8056 24.3437 10.9211C24.3264 11.0309 24.361 11.1176 24.4304 11.1927C24.4997 11.2678 24.5806 11.3024 24.6615 11.3024H24.8637L24.9503 10.6034C24.8695 10.586 24.7886 10.586 24.7712 10.586ZM24.7712 10.586C24.6615 10.586 24.5575 10.6149 24.4881 10.6669C24.4073 10.7247 24.3553 10.8056 24.3437 10.9211C24.3264 11.0309 24.361 11.1176 24.4304 11.1927C24.4997 11.2678 24.5806 11.3024 24.6615 11.3024H24.8637L24.9503 10.6034C24.8695 10.586 24.7886 10.586 24.7712 10.586ZM23.1998 14.1392C23.142 14.0005 23.0553 13.937 22.934 13.937C22.8127 13.937 22.6971 14.0063 22.6105 14.1392C22.518 14.2778 22.4602 14.457 22.4429 14.6707C22.414 14.8729 22.4314 15.0578 22.4776 15.1907C22.5296 15.3236 22.6278 15.3929 22.7491 15.3929C22.8704 15.3929 22.9918 15.3178 23.0727 15.1907C23.1651 15.052 23.2229 14.8729 23.246 14.6707C23.2691 14.4512 23.2575 14.2721 23.194 14.1392H23.1998ZM21.3567 10.9096C21.3105 10.7651 21.2123 10.6958 21.091 10.6958C20.9697 10.6958 20.8541 10.7651 20.7674 10.9096C20.6808 11.054 20.6288 11.2273 20.5999 11.4353C20.5768 11.6549 20.5883 11.8224 20.6461 11.9611C20.7039 12.0997 20.7905 12.1633 20.9119 12.1633C21.0448 12.1633 21.1545 12.094 21.2354 11.9611C21.3279 11.8166 21.3914 11.6491 21.4087 11.4353C21.4376 11.2216 21.4203 11.0482 21.3567 10.9096ZM11.7488 10.8749C11.6043 10.8749 11.5061 10.9442 11.4368 11.0771C11.3674 11.2216 11.3212 11.3891 11.2866 11.5913C11.2808 11.6953 11.2808 11.8051 11.2808 11.9149C11.275 12.0188 11.3039 12.1113 11.3501 12.1922C11.4021 12.2846 11.4657 12.3308 11.5639 12.3308C11.6621 12.3366 11.7545 12.2962 11.8239 12.2153C11.8932 12.1286 11.9394 12.042 11.9683 11.9495C11.9914 11.8571 12.0145 11.7473 12.0261 11.6202C12.0896 11.1291 11.9972 10.8807 11.7545 10.8749H11.7488ZM11.7488 10.8749C11.6043 10.8749 11.5061 10.9442 11.4368 11.0771C11.3674 11.2216 11.3212 11.3891 11.2866 11.5913C11.2808 11.6953 11.2808 11.8051 11.2808 11.9149C11.275 12.0188 11.3039 12.1113 11.3501 12.1922C11.4021 12.2846 11.4657 12.3308 11.5639 12.3308C11.6621 12.3366 11.7545 12.2962 11.8239 12.2153C11.8932 12.1286 11.9394 12.042 11.9683 11.9495C11.9914 11.8571 12.0145 11.7473 12.0261 11.6202C12.0896 11.1291 11.9972 10.8807 11.7545 10.8749H11.7488ZM21.3567 10.9096C21.3105 10.7651 21.2123 10.6958 21.091 10.6958C20.9697 10.6958 20.8541 10.7651 20.7674 10.9096C20.6808 11.054 20.6288 11.2273 20.5999 11.4353C20.5768 11.6549 20.5883 11.8224 20.6461 11.9611C20.7039 12.0997 20.7905 12.1633 20.9119 12.1633C21.0448 12.1633 21.1545 12.094 21.2354 11.9611C21.3279 11.8166 21.3914 11.6491 21.4087 11.4353C21.4376 11.2216 21.4203 11.0482 21.3567 10.9096ZM21.3567 10.9096C21.3105 10.7651 21.2123 10.6958 21.091 10.6958C20.9697 10.6958 20.8541 10.7651 20.7674 10.9096C20.6808 11.054 20.6288 11.2273 20.5999 11.4353C20.5768 11.6549 20.5883 11.8224 20.6461 11.9611C20.7039 12.0997 20.7905 12.1633 20.9119 12.1633C21.0448 12.1633 21.1545 12.094 21.2354 11.9611C21.3279 11.8166 21.3914 11.6491 21.4087 11.4353C21.4376 11.2216 21.4203 11.0482 21.3567 10.9096ZM11.7488 10.8749C11.6043 10.8749 11.5061 10.9442 11.4368 11.0771C11.3674 11.2216 11.3212 11.3891 11.2866 11.5913C11.2808 11.6953 11.2808 11.8051 11.2808 11.9149C11.275 12.0188 11.3039 12.1113 11.3501 12.1922C11.4021 12.2846 11.4657 12.3308 11.5639 12.3308C11.6621 12.3366 11.7545 12.2962 11.8239 12.2153C11.8932 12.1286 11.9394 12.042 11.9683 11.9495C11.9914 11.8571 12.0145 11.7473 12.0261 11.6202C12.0896 11.1291 11.9972 10.8807 11.7545 10.8749H11.7488ZM11.7488 10.8749C11.6043 10.8749 11.5061 10.9442 11.4368 11.0771C11.3674 11.2216 11.3212 11.3891 11.2866 11.5913C11.2808 11.6953 11.2808 11.8051 11.2808 11.9149C11.275 12.0188 11.3039 12.1113 11.3501 12.1922C11.4021 12.2846 11.4657 12.3308 11.5639 12.3308C11.6621 12.3366 11.7545 12.2962 11.8239 12.2153C11.8932 12.1286 11.9394 12.042 11.9683 11.9495C11.9914 11.8571 12.0145 11.7473 12.0261 11.6202C12.0896 11.1291 11.9972 10.8807 11.7545 10.8749H11.7488ZM11.7488 10.8749C11.6043 10.8749 11.5061 10.9442 11.4368 11.0771C11.3674 11.2216 11.3212 11.3891 11.2866 11.5913C11.2808 11.6953 11.2808 11.8051 11.2808 11.9149C11.275 12.0188 11.3039 12.1113 11.3501 12.1922C11.4021 12.2846 11.4657 12.3308 11.5639 12.3308C11.6621 12.3366 11.7545 12.2962 11.8239 12.2153C11.8932 12.1286 11.9394 12.042 11.9683 11.9495C11.9914 11.8571 12.0145 11.7473 12.0261 11.6202C12.0896 11.1291 11.9972 10.8807 11.7545 10.8749H11.7488Z" fill="#00AFEF"/>
<path d="M18 3C11.7314 3 6.62988 8.10153 6.62988 14.3701C6.62988 20.6387 11.7314 25.7402 18 25.7402C24.2686 25.7402 29.3701 20.6329 29.3701 14.3701C29.3701 8.10731 24.2686 3 18 3ZM18 25.3069C11.9741 25.3069 7.0632 20.4018 7.0632 14.3701C7.0632 8.33841 11.9741 3.43331 18 3.43331C24.0259 3.43331 28.9368 8.33841 28.9368 14.3701C28.9368 20.4018 24.0317 25.3069 18 25.3069Z" fill="#00AFEF"/>
</svg>
