<svg xmlns="http://www.w3.org/2000/svg" version="1.1" xmlns:xlink="http://www.w3.org/1999/xlink" width="80" height="80"><svg width="80" height="80" viewBox="0 0 80 80" fill="none" xmlns="http://www.w3.org/2000/svg">
<circle cx="40" cy="40" r="40" fill="white"></circle>
<path fill-rule="evenodd" clip-rule="evenodd" d="M59.6734 67.6426C60.9945 67.6426 61.7669 67.8865 62.5189 68.2523C56.3807 73.1101 48.6165 75.9962 40.2018 75.9962C31.7872 75.9962 24.023 73.1101 17.8848 68.2523C18.6368 67.8865 19.4092 67.6426 20.7303 67.6426C22.5189 67.6426 23.3319 68.0897 24.3888 68.6792C25.7303 69.4109 27.397 70.3255 30.4864 70.3255C33.5758 70.3255 35.2222 69.4109 36.5636 68.6792C37.6612 68.0694 38.4132 67.6426 40.2222 67.6426C42.0311 67.6426 42.8035 68.0897 43.8807 68.6792C45.2222 69.4109 46.8685 70.3255 49.9579 70.3255C53.0474 70.3255 54.6734 69.4109 56.0148 68.6792C57.1124 68.0694 57.9051 67.6426 59.6734 67.6426Z" fill="#00AFEF"></path>
<path fill-rule="evenodd" clip-rule="evenodd" d="M68.0473 62.9061C67.5392 63.5362 67.0107 64.1256 66.4213 64.6947C66.1977 64.5931 66.0148 64.4712 65.7912 64.3492C64.4294 63.6175 62.7831 62.7029 59.6937 62.7029C56.6042 62.7029 54.9782 63.6175 53.6367 64.3492C52.5392 64.959 51.7668 65.3858 49.9579 65.3858C48.1489 65.3858 47.3766 64.9387 46.2587 64.3492C44.9376 63.6175 43.2709 62.7029 40.2018 62.7029C37.1327 62.7029 35.466 63.6175 34.1246 64.3492C33.027 64.959 32.2343 65.3858 30.466 65.3858C28.6977 65.3858 27.8644 64.9387 26.7872 64.3492C25.4457 63.6175 23.7994 62.7029 20.6896 62.7029C17.5798 62.7029 15.9741 63.6175 14.6327 64.3492C14.3888 64.4712 14.1652 64.5931 13.962 64.6947C13.3725 64.1053 12.8441 63.5362 12.3359 62.9061C14.5514 62.6826 15.9335 61.9305 17.0514 61.3208C18.1286 60.711 18.9213 60.2842 20.6896 60.2842C22.4579 60.2842 23.2912 60.7313 24.3481 61.3208C25.6896 62.0525 27.3563 62.9671 30.4457 62.9671C33.5351 62.9671 35.1815 62.0525 36.5026 61.3208C37.6205 60.711 38.3725 60.2842 40.2018 60.2842C42.0311 60.2842 42.7831 60.7313 43.8603 61.3208C45.2018 62.0525 46.8481 62.9671 49.9376 62.9671C53.027 62.9671 54.653 62.0525 55.9945 61.3208C57.092 60.711 57.8847 60.2842 59.653 60.2842C61.4213 60.2842 62.2343 60.7313 63.3319 61.3208C64.4498 61.9305 65.7912 62.6826 68.027 62.9061H68.0473Z" fill="#00AFEF"></path>
<path fill-rule="evenodd" clip-rule="evenodd" d="M29.3696 28.9021C28.9021 29.1866 28.272 29.2883 27.459 29.2273C27.6826 28.0688 28.1094 27.3167 28.7191 26.9712C28.8614 26.8899 29.0037 26.8492 29.1866 26.8289H29.2679C29.2679 26.8289 29.2883 26.8289 29.2883 26.8086C29.5728 26.8086 29.7964 26.8899 29.959 27.0525C30.1622 27.2557 30.2029 27.459 30.1826 27.7232C30.1013 28.2314 29.837 28.6379 29.3899 28.9224L29.3696 28.9021Z" fill="#00AFEF"></path>
<path fill-rule="evenodd" clip-rule="evenodd" d="M18.0075 27.7031C17.4994 27.7031 17.1539 27.947 16.91 28.4145C16.6661 28.9226 16.5035 29.512 16.3815 30.2234C16.3612 30.5893 16.3612 30.9755 16.3612 31.3616C16.3409 31.7275 16.4425 32.0527 16.6051 32.3372C16.788 32.6625 17.0116 32.8251 17.3571 32.8251C17.7027 32.8454 18.0279 32.7031 18.2718 32.4185C18.5157 32.1137 18.6783 31.8088 18.7799 31.4836C18.8612 31.1584 18.9425 30.7722 18.9832 30.3251C19.2067 28.5974 18.8815 27.7234 18.0279 27.7031H18.0075ZM18.0075 27.7031C17.4994 27.7031 17.1539 27.947 16.91 28.4145C16.6661 28.9226 16.5035 29.512 16.3815 30.2234C16.3612 30.5893 16.3612 30.9755 16.3612 31.3616C16.3409 31.7275 16.4425 32.0527 16.6051 32.3372C16.788 32.6625 17.0116 32.8251 17.3571 32.8251C17.7027 32.8454 18.0279 32.7031 18.2718 32.4185C18.5157 32.1137 18.6783 31.8088 18.7799 31.4836C18.8612 31.1584 18.9425 30.7722 18.9832 30.3251C19.2067 28.5974 18.8815 27.7234 18.0279 27.7031H18.0075ZM18.0075 27.7031C17.4994 27.7031 17.1539 27.947 16.91 28.4145C16.6661 28.9226 16.5035 29.512 16.3815 30.2234C16.3612 30.5893 16.3612 30.9755 16.3612 31.3616C16.3409 31.7275 16.4425 32.0527 16.6051 32.3372C16.788 32.6625 17.0116 32.8251 17.3571 32.8251C17.7027 32.8454 18.0279 32.7031 18.2718 32.4185C18.5157 32.1137 18.6783 31.8088 18.7799 31.4836C18.8612 31.1584 18.9425 30.7722 18.9832 30.3251C19.2067 28.5974 18.8815 27.7234 18.0279 27.7031H18.0075ZM51.8084 27.8251C51.6458 27.3169 51.3002 27.073 50.8734 27.073C50.4466 27.073 50.0401 27.3169 49.7352 27.8251C49.4303 28.3332 49.2474 28.9429 49.1458 29.6746C49.0645 30.447 49.1051 31.0364 49.3084 31.5242C49.5116 32.012 49.8165 32.2356 50.2433 32.2356C50.7108 32.2356 51.097 31.9917 51.3815 31.5242C51.7067 31.0161 51.9303 30.4267 51.9913 29.6746C52.0929 28.9226 52.0319 28.3129 51.8084 27.8251ZM63.8205 26.6868C63.4344 26.6868 63.0685 26.7885 62.8246 26.9714C62.5401 27.1746 62.3571 27.4592 62.3165 27.8657C62.2555 28.2519 62.3775 28.5568 62.6214 28.821C62.8653 29.0852 63.1498 29.2072 63.4344 29.2072H64.1458L64.4506 26.7478C64.1661 26.6868 63.8815 26.6868 63.8205 26.6868ZM63.8205 26.6868C63.4344 26.6868 63.0685 26.7885 62.8246 26.9714C62.5401 27.1746 62.3571 27.4592 62.3165 27.8657C62.2555 28.2519 62.3775 28.5568 62.6214 28.821C62.8653 29.0852 63.1498 29.2072 63.4344 29.2072H64.1458L64.4506 26.7478C64.1661 26.6868 63.8815 26.6868 63.8205 26.6868ZM51.8084 27.8251C51.6458 27.3169 51.3002 27.073 50.8734 27.073C50.4466 27.073 50.0401 27.3169 49.7352 27.8251C49.4303 28.3332 49.2474 28.9429 49.1458 29.6746C49.0645 30.447 49.1051 31.0364 49.3084 31.5242C49.5116 32.012 49.8165 32.2356 50.2433 32.2356C50.7108 32.2356 51.097 31.9917 51.3815 31.5242C51.7067 31.0161 51.9303 30.4267 51.9913 29.6746C52.0929 28.9226 52.0319 28.3129 51.8084 27.8251ZM18.0075 27.7031C17.4994 27.7031 17.1539 27.947 16.91 28.4145C16.6661 28.9226 16.5035 29.512 16.3815 30.2234C16.3612 30.5893 16.3612 30.9755 16.3612 31.3616C16.3409 31.7275 16.4425 32.0527 16.6051 32.3372C16.788 32.6625 17.0116 32.8251 17.3571 32.8251C17.7027 32.8454 18.0279 32.7031 18.2718 32.4185C18.5157 32.1137 18.6783 31.8088 18.7799 31.4836C18.8612 31.1584 18.9425 30.7722 18.9832 30.3251C19.2067 28.5974 18.8815 27.7234 18.0279 27.7031H18.0075ZM18.0075 27.7031C17.4994 27.7031 17.1539 27.947 16.91 28.4145C16.6661 28.9226 16.5035 29.512 16.3815 30.2234C16.3612 30.5893 16.3612 30.9755 16.3612 31.3616C16.3409 31.7275 16.4425 32.0527 16.6051 32.3372C16.788 32.6625 17.0116 32.8251 17.3571 32.8251C17.7027 32.8454 18.0279 32.7031 18.2718 32.4185C18.5157 32.1137 18.6783 31.8088 18.7799 31.4836C18.8612 31.1584 18.9425 30.7722 18.9832 30.3251C19.2067 28.5974 18.8815 27.7234 18.0279 27.7031H18.0075ZM51.8084 27.8251C51.6458 27.3169 51.3002 27.073 50.8734 27.073C50.4466 27.073 50.0401 27.3169 49.7352 27.8251C49.4303 28.3332 49.2474 28.9429 49.1458 29.6746C49.0645 30.447 49.1051 31.0364 49.3084 31.5242C49.5116 32.012 49.8165 32.2356 50.2433 32.2356C50.7108 32.2356 51.097 31.9917 51.3815 31.5242C51.7067 31.0161 51.9303 30.4267 51.9913 29.6746C52.0929 28.9226 52.0319 28.3129 51.8084 27.8251ZM58.2921 39.1868C58.0888 38.699 57.784 38.4755 57.3571 38.4755C56.9303 38.4755 56.5238 38.7194 56.2189 39.1868C55.8937 39.6746 55.6905 40.3047 55.6295 41.0568C55.5279 41.7681 55.5888 42.4185 55.7514 42.886C55.9344 43.3535 56.2799 43.5974 56.7067 43.5974C57.1336 43.5974 57.5604 43.3332 57.8449 42.886C58.1701 42.3982 58.3734 41.7681 58.4547 41.0568C58.536 40.2844 58.4953 39.6543 58.2718 39.1868H58.2921ZM63.8205 26.6868C63.4344 26.6868 63.0685 26.7885 62.8246 26.9714C62.5401 27.1746 62.3571 27.4592 62.3165 27.8657C62.2555 28.2519 62.3775 28.5568 62.6214 28.821C62.8653 29.0852 63.1498 29.2072 63.4344 29.2072H64.1458L64.4506 26.7478C64.1661 26.6868 63.8815 26.6868 63.8205 26.6868ZM63.8205 26.6868C63.4344 26.6868 63.0685 26.7885 62.8246 26.9714C62.5401 27.1746 62.3571 27.4592 62.3165 27.8657C62.2555 28.2519 62.3775 28.5568 62.6214 28.821C62.8653 29.0852 63.1498 29.2072 63.4344 29.2072H64.1458L64.4506 26.7478C64.1661 26.6868 63.8815 26.6868 63.8205 26.6868ZM58.2921 39.1868C58.0888 38.699 57.784 38.4755 57.3571 38.4755C56.9303 38.4755 56.5238 38.7194 56.2189 39.1868C55.8937 39.6746 55.6905 40.3047 55.6295 41.0568C55.5279 41.7681 55.5888 42.4185 55.7514 42.886C55.9344 43.3535 56.2799 43.5974 56.7067 43.5974C57.1336 43.5974 57.5604 43.3332 57.8449 42.886C58.1701 42.3982 58.3734 41.7681 58.4547 41.0568C58.536 40.2844 58.4953 39.6543 58.2718 39.1868H58.2921ZM51.8084 27.8251C51.6458 27.3169 51.3002 27.073 50.8734 27.073C50.4466 27.073 50.0401 27.3169 49.7352 27.8251C49.4303 28.3332 49.2474 28.9429 49.1458 29.6746C49.0645 30.447 49.1051 31.0364 49.3084 31.5242C49.5116 32.012 49.8165 32.2356 50.2433 32.2356C50.7108 32.2356 51.097 31.9917 51.3815 31.5242C51.7067 31.0161 51.9303 30.4267 51.9913 29.6746C52.0929 28.9226 52.0319 28.3129 51.8084 27.8251ZM18.0075 27.7031C17.4994 27.7031 17.1539 27.947 16.91 28.4145C16.6661 28.9226 16.5035 29.512 16.3815 30.2234C16.3612 30.5893 16.3612 30.9755 16.3612 31.3616C16.3409 31.7275 16.4425 32.0527 16.6051 32.3372C16.788 32.6625 17.0116 32.8251 17.3571 32.8251C17.7027 32.8454 18.0279 32.7031 18.2718 32.4185C18.5157 32.1137 18.6783 31.8088 18.7799 31.4836C18.8612 31.1584 18.9425 30.7722 18.9832 30.3251C19.2067 28.5974 18.8815 27.7234 18.0279 27.7031H18.0075ZM18.0075 27.7031C17.4994 27.7031 17.1539 27.947 16.91 28.4145C16.6661 28.9226 16.5035 29.512 16.3815 30.2234C16.3612 30.5893 16.3612 30.9755 16.3612 31.3616C16.3409 31.7275 16.4425 32.0527 16.6051 32.3372C16.788 32.6625 17.0116 32.8251 17.3571 32.8251C17.7027 32.8454 18.0279 32.7031 18.2718 32.4185C18.5157 32.1137 18.6783 31.8088 18.7799 31.4836C18.8612 31.1584 18.9425 30.7722 18.9832 30.3251C19.2067 28.5974 18.8815 27.7234 18.0279 27.7031H18.0075ZM24.9384 39.4104C24.7352 38.9226 24.41 38.699 23.9628 38.699C23.5157 38.699 23.1498 38.9226 22.8246 39.3901C22.5401 39.8779 22.3165 40.4877 22.2149 41.2397C22.1336 41.9917 22.1945 42.6218 22.3978 43.0893C22.601 43.5771 22.9059 43.8007 23.3327 43.8007C23.7596 43.8007 24.1661 43.5568 24.471 43.0893C24.7962 42.6015 24.9994 41.9714 25.0604 41.2397C25.1823 40.4877 25.1417 39.8779 24.9588 39.4104H24.9384ZM36.1986 38.3738C36.036 38.1909 35.8124 38.1096 35.5075 38.1096V38.1503H35.4466C35.2636 38.1706 35.101 38.2316 34.9588 38.3129C34.3693 38.6381 33.9425 39.3901 33.7189 40.5486C34.5319 40.6096 35.162 40.5283 35.6295 40.2641C36.1173 39.9998 36.3815 39.5933 36.4222 39.0446C36.4832 38.7803 36.4019 38.5568 36.2189 38.3942L36.1986 38.3738ZM51.8287 27.8251C51.6661 27.3169 51.3206 27.073 50.8937 27.073C50.4669 27.073 50.0604 27.3169 49.7555 27.8251C49.4506 28.3332 49.2677 28.9429 49.1661 29.6746C49.0848 30.447 49.1254 31.0364 49.3287 31.5242C49.5319 32.012 49.8368 32.2356 50.2636 32.2356C50.7311 32.2356 51.1173 31.9917 51.4019 31.5242C51.7271 31.0161 51.9506 30.4267 52.0116 29.6746C52.1132 28.9226 52.0523 28.3129 51.8287 27.8251ZM58.3124 39.1868C58.1092 38.699 57.8043 38.4755 57.3775 38.4755C56.9506 38.4755 56.5441 38.7194 56.2392 39.1868C55.914 39.6746 55.7108 40.3047 55.6498 41.0568C55.5482 41.7681 55.6092 42.4185 55.7718 42.886C55.9547 43.3535 56.3002 43.5974 56.7271 43.5974C57.1539 43.5974 57.5807 43.3332 57.8653 42.886C58.1905 42.3982 58.3937 41.7681 58.475 41.0568C58.5563 40.2844 58.5157 39.6543 58.2921 39.1868H58.3124ZM63.8409 26.6868C63.4547 26.6868 63.0888 26.7885 62.8449 26.9714C62.5604 27.1746 62.3775 27.4592 62.3368 27.8657C62.2758 28.2519 62.3978 28.5568 62.6417 28.821C62.8856 29.0852 63.1701 29.2072 63.4547 29.2072H64.1661L64.471 26.7478C64.1864 26.6868 63.9019 26.6868 63.8409 26.6868ZM63.8409 26.6868C63.4547 26.6868 63.0888 26.7885 62.8449 26.9714C62.5604 27.1746 62.3775 27.4592 62.3368 27.8657C62.2758 28.2519 62.3978 28.5568 62.6417 28.821C62.8856 29.0852 63.1701 29.2072 63.4547 29.2072H64.1661L64.471 26.7478C64.1864 26.6868 63.9019 26.6868 63.8409 26.6868ZM58.3124 39.1868C58.1092 38.699 57.8043 38.4755 57.3775 38.4755C56.9506 38.4755 56.5441 38.7194 56.2392 39.1868C55.914 39.6746 55.7108 40.3047 55.6498 41.0568C55.5482 41.7681 55.6092 42.4185 55.7718 42.886C55.9547 43.3535 56.3002 43.5974 56.7271 43.5974C57.1539 43.5974 57.5807 43.3332 57.8653 42.886C58.1905 42.3982 58.3937 41.7681 58.475 41.0568C58.5563 40.2844 58.5157 39.6543 58.2921 39.1868H58.3124ZM51.8287 27.8251C51.6661 27.3169 51.3206 27.073 50.8937 27.073C50.4669 27.073 50.0604 27.3169 49.7555 27.8251C49.4506 28.3332 49.2677 28.9429 49.1661 29.6746C49.0848 30.447 49.1254 31.0364 49.3287 31.5242C49.5319 32.012 49.8368 32.2356 50.2636 32.2356C50.7311 32.2356 51.1173 31.9917 51.4019 31.5242C51.7271 31.0161 51.9506 30.4267 52.0116 29.6746C52.1132 28.9226 52.0523 28.3129 51.8287 27.8251ZM36.1986 38.3738C36.036 38.1909 35.8124 38.1096 35.5075 38.1096V38.1503H35.4466C35.2636 38.1706 35.101 38.2316 34.9588 38.3129C34.3693 38.6381 33.9425 39.3901 33.7189 40.5486C34.5319 40.6096 35.162 40.5283 35.6295 40.2641C36.1173 39.9998 36.3815 39.5933 36.4222 39.0446C36.4832 38.7803 36.4019 38.5568 36.2189 38.3942L36.1986 38.3738ZM24.9384 39.4104C24.7352 38.9226 24.41 38.699 23.9628 38.699C23.5157 38.699 23.1498 38.9226 22.8246 39.3901C22.5401 39.8779 22.3165 40.4877 22.2149 41.2397C22.1336 41.9917 22.1945 42.6218 22.3978 43.0893C22.601 43.5771 22.9059 43.8007 23.3327 43.8007C23.7596 43.8007 24.1661 43.5568 24.471 43.0893C24.7962 42.6015 24.9994 41.9714 25.0604 41.2397C25.1823 40.4877 25.1417 39.8779 24.9588 39.4104H24.9384ZM18.0075 27.7031C17.4994 27.7031 17.1539 27.947 16.91 28.4145C16.6661 28.9226 16.5035 29.512 16.3815 30.2234C16.3612 30.5893 16.3612 30.9755 16.3612 31.3616C16.3409 31.7275 16.4425 32.0527 16.6051 32.3372C16.788 32.6625 17.0116 32.8251 17.3571 32.8251C17.7027 32.8454 18.0279 32.7031 18.2718 32.4185C18.5157 32.1137 18.6783 31.8088 18.7799 31.4836C18.8612 31.1584 18.9425 30.7722 18.9832 30.3251C19.2067 28.5974 18.8815 27.7234 18.0279 27.7031H18.0075ZM40.2027 3.67871C20.223 3.67871 4.06445 19.8576 4.06445 39.8372C4.06445 46.3413 5.75144 52.4389 8.75957 57.7031C9.36933 57.9267 10.0401 58.0486 11.036 58.0486C12.8043 58.0486 13.597 57.6015 14.6539 56.9917C16.0157 56.2803 17.662 55.3251 20.7108 55.3251C23.7596 55.3251 25.4669 56.26 26.8084 56.9917C27.8856 57.6015 28.6783 58.0486 30.4872 58.0486C32.2962 58.0486 33.0685 57.6015 34.1661 56.9917C35.5075 56.2803 37.1539 55.3251 40.2433 55.3251C43.3327 55.3251 44.9791 56.26 46.3002 56.9917C47.4181 57.6015 48.1498 58.0486 49.9994 58.0486C51.849 58.0486 52.5807 57.6015 53.6783 56.9917C55.0197 56.2803 56.6661 55.3251 59.7352 55.3251C62.8043 55.3251 64.4506 56.26 65.8327 56.9917C66.91 57.6015 67.6823 58.0486 69.4506 58.0486C70.4059 58.0486 71.097 57.9267 71.6864 57.7234C74.6539 52.4592 76.3815 46.3413 76.3815 39.8372C76.3409 19.8576 60.1823 3.67871 40.2027 3.67871ZM26.4222 17.9064C33.1295 11.4429 44.5726 19.3291 54.2677 13.7803C55.3449 13.1706 55.8937 11.8494 55.1417 14.6543C54.6539 16.4023 53.0888 19.1462 48.6986 20.2234C46.5645 20.7519 44.0645 20.7519 41.6661 20.447C37.784 19.9389 33.4344 17.7844 29.9994 17.8657C28.597 17.9064 27.2149 18.2722 25.975 19.1665C24.4913 20.2438 25.7921 18.4958 26.4425 17.9064H26.4222ZM23.6173 29.8169C23.7799 28.3942 24.4303 27.1543 25.5888 26.1584C26.7067 25.1218 28.0482 24.634 29.6539 24.634C31.097 24.634 32.1539 24.9795 32.8449 25.7112C33.5157 26.4023 33.8002 27.1543 33.7393 27.9673C33.6579 28.6584 33.3937 29.2681 32.9059 29.7356C32.4588 30.2438 31.9506 30.5486 31.3409 30.6909C30.7311 30.8535 30.0807 30.9755 29.3693 31.0161C28.6783 31.0568 28.0075 31.0161 27.3978 30.8942C27.601 31.8291 28.2514 32.3576 29.3287 32.5202C30.4262 32.6421 31.5848 32.3576 32.8246 31.7072C32.9059 31.6462 33.0279 31.6462 33.0888 31.6868C33.1498 31.7681 33.1498 31.8698 33.0888 31.9917C32.8653 32.5608 32.2758 33.2112 31.3612 33.9633C30.4466 34.6746 29.3693 35.0608 28.1295 35.0608C26.7067 35.0608 25.5482 34.5324 24.6539 33.5364C23.7799 32.4998 23.4344 31.2803 23.6376 29.8372L23.6173 29.8169ZM14.6336 34.1868C13.9628 33.6584 13.475 33.069 13.1498 32.3169C12.8449 31.6055 12.6823 30.8129 12.7636 30.0202C12.9872 25.7112 14.1864 23.1096 16.3815 22.2153C16.9506 21.9917 17.5401 21.8291 18.1092 21.6868C18.7189 21.6055 19.2067 21.5649 19.5523 21.5649C19.9181 21.5242 20.2027 21.4633 20.4466 21.3413C20.7108 21.2194 20.8531 20.9958 20.9344 20.6909C20.9547 20.569 21.0157 20.508 21.1376 20.4877H21.2392C21.9506 20.4877 22.5197 20.7519 22.9059 21.3007C23.2921 21.8494 23.414 22.4389 23.2108 23.069C22.9872 23.6584 22.601 24.1055 22.0319 24.3901C21.4832 24.634 20.8937 24.7153 20.3043 24.695C19.7149 24.6543 19.0645 24.6746 18.3124 24.7153C17.601 24.7559 17.0523 24.9185 16.6661 25.1828C15.8531 25.7316 15.3856 26.6055 15.1823 27.8047C15.4669 27.1746 15.8937 26.6868 16.5238 26.3007C17.1336 25.9348 17.784 25.7112 18.4547 25.6909C19.8775 25.6503 20.975 26.0771 21.7677 27.012C22.5807 27.9267 22.9059 29.0852 22.723 30.508C22.5604 31.9307 21.9506 33.069 20.9547 33.9023C19.9588 34.7356 18.6579 35.1218 17.1132 35.0812C16.1579 35.0202 15.3246 34.7559 14.6539 34.2275L14.6336 34.1868ZM28.9425 41.26C28.7596 42.6624 28.3124 43.8616 27.4791 44.8779C26.6864 45.9145 25.6905 46.4023 24.5319 46.4023C23.2921 46.4023 22.4384 45.7925 21.91 44.5933C21.6254 46.2194 21.3002 47.3169 20.7108 48.0893C20.1417 48.8413 19.2677 49.2478 17.9059 49.4511H17.2555L17.2149 49.3901C17.8856 43.6584 18.3327 41.1787 18.4344 40.3047C18.4953 39.5933 18.5157 39.0242 18.4547 38.6381C18.414 38.2722 18.2718 38.008 18.1905 37.9267C18.0279 37.8047 17.9262 37.7234 17.8449 37.6625C17.784 37.6218 17.7636 37.4998 17.8043 37.4185C17.9872 37.0933 18.2921 36.7885 18.7799 36.4836C19.288 36.199 19.7758 36.0364 20.284 36.0364C20.9344 36.0364 21.4832 36.2397 21.91 36.6259C22.3571 37.012 22.5604 37.5405 22.601 38.2112C23.5157 36.7681 24.6132 36.0161 25.8734 36.0161C26.6661 36.0161 27.2962 36.3007 27.8043 36.8088C28.3124 37.3372 28.6783 37.9877 28.8612 38.76C29.0238 39.5324 29.0848 40.386 28.9425 41.26ZM35.5685 43.8413C36.6661 44.0039 37.8246 43.7397 39.0645 43.0486C39.1458 42.9877 39.2271 42.9877 39.3084 43.008C39.3897 43.0893 39.3897 43.2112 39.3287 43.3332C39.0848 43.9226 38.5157 44.573 37.5807 45.3047C36.6661 45.9958 35.5888 46.382 34.3693 46.382C32.9262 46.382 31.7677 45.8942 30.8937 44.8779C30.0197 43.8413 29.6539 42.6218 29.8165 41.1787C30.0197 39.7356 30.6701 38.5364 31.788 37.4999C32.9262 36.5039 34.3084 35.9958 35.8937 35.9958C37.3165 35.9958 38.3937 36.3413 39.0645 37.0527C39.7555 37.7641 40.0604 38.5161 39.9791 39.3291C39.8775 40.0405 39.6132 40.6096 39.1661 41.1177C38.6986 41.5852 38.1905 41.9104 37.5807 42.0527C36.971 42.2356 36.3206 42.3372 35.5888 42.3982C34.9181 42.4389 34.2474 42.3982 33.6173 42.2356C33.8409 43.1503 34.471 43.699 35.5685 43.821V43.8413ZM39.8165 34.6543C39.8165 34.6543 39.7352 34.6137 39.7352 34.573L40.6905 26.8291H39.349C39.0848 28.6177 38.8409 30.3047 38.4547 31.7885C37.8856 33.9836 37.0726 35.0608 35.2636 35.0608C33.7596 35.0608 32.784 33.8413 32.8449 33.5161C32.8653 33.4348 34.5726 33.2519 35.4872 30.0811C36.3002 27.3372 36.4628 25.1421 36.4628 25.1421C36.4628 25.0811 36.5035 25.0608 36.5441 25.0608C39.2067 24.4714 41.8084 24.4917 44.6742 25.0812C44.6945 25.0812 44.7149 25.1015 44.7149 25.1421L43.536 34.5527C43.536 34.5527 43.5157 34.634 43.475 34.634H39.7962L39.8165 34.6543ZM50.9953 45.2234C50.3043 45.8535 49.5523 46.1787 48.6986 46.2194C48.3734 46.2397 48.0482 46.2194 47.7636 46.1787C47.4588 46.1381 47.2149 46.0974 46.9913 45.9755C46.7677 45.9145 46.6051 45.7722 46.4425 45.6503L46.0157 45.2031C45.8937 45.0405 45.7921 44.8779 45.7108 44.6543C45.6295 44.4307 45.5888 44.2478 45.5075 44.1055C45.4669 43.9429 45.4262 43.76 45.4059 43.4958C45.3856 43.2519 45.3653 43.0486 45.3653 42.947C45.3653 42.8251 45.3449 42.6421 45.3449 42.3982C45.3043 42.1746 45.3043 42.012 45.3043 41.9511H45.1417C45.1417 41.9511 44.7962 41.9714 44.7555 41.9714L44.2067 45.8738C44.2067 45.8738 44.1661 45.9348 44.1254 45.9348H40.4059V45.8738L41.3815 40.2234C41.4628 39.6746 41.5645 38.699 41.2189 38.1503C41.0157 37.8657 40.5888 37.6421 40.4669 37.6015C40.3653 37.5202 40.3449 37.4186 40.3856 37.3372C40.5685 36.9917 40.8734 36.7072 41.3612 36.4023C41.8693 36.1177 42.3368 35.9958 42.8653 35.9958C43.6579 35.9958 44.2677 36.2397 44.6742 36.7681C45.101 37.2966 45.2636 38.008 45.162 38.9023L44.9384 40.447C45.4262 40.3454 46.036 40.2031 46.4019 39.9592C46.7271 39.7356 46.9506 39.4307 47.0523 39.1462C47.1336 38.821 47.1336 38.5568 47.0726 38.3332C46.971 38.1096 46.8693 37.886 46.7474 37.7031L46.5645 37.3982C46.6051 37.073 46.849 36.7681 47.2758 36.4836C47.723 36.1787 48.1905 36.0364 48.6986 36.0364C49.471 36.0364 49.9994 36.26 50.4059 36.7072C50.8124 37.1746 50.975 37.7031 50.8937 38.4348C50.7921 39.512 49.9181 40.4064 48.2718 41.1584C48.6376 42.4185 49.5116 43.5161 50.975 44.4714C51.0766 44.5527 51.1986 44.6543 51.1986 44.7356C51.2189 44.7763 51.1173 44.9389 50.9547 45.1421L50.9953 45.2234ZM48.2921 34.8982C47.5401 34.8982 46.8897 34.6137 46.3612 34.0649C45.8327 33.4958 45.4872 32.8047 45.3449 32.012C45.1417 31.199 45.0807 30.3454 45.223 29.4714C45.4059 28.0893 45.8734 26.8901 46.6864 25.9551C47.4791 25.0202 48.475 24.512 49.6945 24.512C50.914 24.512 51.7677 25.1218 52.2758 26.3413L52.4588 25.0405C52.4588 25.0405 52.4588 24.9795 52.4791 24.9592C52.4994 24.9389 52.5401 24.9389 52.5401 24.9389H52.5807L56.3815 24.9185C56.4222 24.9185 56.4425 24.9592 56.4425 25.0202C56.0157 27.9064 55.6905 29.7966 55.6092 30.6706C55.5075 31.26 55.5075 31.7478 55.5685 32.073C55.6092 32.4185 55.6701 32.6828 55.7921 32.8657C55.8734 33.0283 55.975 33.1503 56.097 33.1909C56.1986 33.2519 56.3002 33.2925 56.3409 33.3738C56.3815 33.4145 56.3815 33.4755 56.3612 33.5771C56.2392 33.9226 55.8937 34.2275 55.4262 34.4917C54.9384 34.7966 54.4303 34.9389 53.9222 34.9389C53.2718 34.9389 52.7027 34.7356 52.2555 34.3698C51.8693 33.9836 51.6051 33.4348 51.5848 32.7844C50.6701 34.2072 49.5726 34.9185 48.3124 34.9185L48.2921 34.8982ZM62.0319 43.4348C62.0929 43.7803 62.1539 44.0242 62.2555 44.2072C62.3368 44.3901 62.4588 44.4917 62.5807 44.573C62.662 44.6137 62.784 44.6543 62.8246 44.695C62.8653 44.7559 62.8653 44.8169 62.8449 44.9185C62.6823 45.2438 62.3775 45.5486 61.8897 45.8535C61.3815 46.1381 60.914 46.3007 60.3856 46.3007C59.7352 46.3007 59.1864 46.0974 58.7392 45.7112C58.3327 45.3251 58.0888 44.7966 58.0685 44.0852C57.1539 45.5283 56.0563 46.2194 54.7962 46.2194C54.0035 46.2194 53.3937 45.9551 52.8653 45.4064C52.3368 44.8372 51.9913 44.1665 51.788 43.3332C51.5848 42.5202 51.5645 41.6665 51.7067 40.7925C51.8897 39.4104 52.3571 38.2519 53.1701 37.2966C53.9628 36.3413 54.9588 35.8738 56.1376 35.8738C57.3775 35.8738 58.2514 36.4633 58.7596 37.6625L58.9425 36.3616C58.9425 36.3616 58.9425 36.321 58.9628 36.321C58.9832 36.3007 58.9832 36.26 58.9832 36.26H62.8653C62.8653 36.26 62.9059 36.3007 62.9059 36.3413C62.4588 39.2478 62.1945 41.1177 62.0726 41.9917C61.9913 42.6218 61.9913 43.0893 62.0319 43.4145V43.4348ZM67.5197 34.6137C66.9913 34.8779 66.5238 35.0202 66.0157 35.0202C65.3653 35.0202 64.7962 34.8169 64.349 34.4307C63.9425 34.0446 63.6986 33.5161 63.6783 32.8657L63.9425 30.8332H63.3327C63.3327 30.8332 63.0482 32.5405 62.3978 33.5364C61.2799 35.3047 59.0848 35.2844 58.1905 34.573C57.8246 34.2478 57.5604 33.882 57.4181 33.5161C57.3775 33.2722 57.3571 33.1299 57.3775 33.0486C57.4181 32.9673 57.4791 32.886 57.662 32.7844C59.2067 31.8901 60.1214 31.1381 60.3856 30.5486C59.7555 30.3251 59.2677 29.9795 58.9425 29.4917C58.6376 29.0242 58.5157 28.4551 58.6173 27.7641C58.7189 26.7681 59.288 25.9755 60.3043 25.447C61.3002 24.8779 62.4384 24.6137 63.7596 24.6137C64.5116 24.6137 65.2636 24.634 66.036 24.695C66.788 24.7763 67.3775 24.8576 67.7636 24.9185L68.3327 25.0405L68.3937 25.0812L67.8043 29.8982H67.8246C67.784 30.2438 67.7636 30.508 67.7433 30.7316C67.6417 31.3413 67.6417 31.8291 67.6823 32.1746C67.7433 32.4795 67.8043 32.7438 67.9059 32.9267C68.0075 33.1096 68.1092 33.2316 68.2311 33.2722C68.3124 33.3129 68.4344 33.3535 68.475 33.4551C68.5157 33.4958 68.5157 33.5568 68.4953 33.6787C68.3327 33.9836 68.0279 34.2885 67.5604 34.5933L67.5197 34.6137ZM62.8246 26.9917C62.5401 27.195 62.3571 27.4795 62.3165 27.886C62.2555 28.2722 62.3775 28.5771 62.6214 28.8413C62.8653 29.1055 63.1498 29.2275 63.4344 29.2275H64.1458L64.4506 26.7681C64.1661 26.7072 63.8815 26.7072 63.8205 26.7072C63.4344 26.7072 63.0685 26.8088 62.8246 26.9917ZM57.3571 38.4755C56.91 38.4755 56.5238 38.7194 56.2189 39.1868C55.8937 39.6746 55.6905 40.3047 55.6295 41.0568C55.5279 41.7681 55.5888 42.4185 55.7514 42.886C55.9344 43.3535 56.2799 43.5974 56.7067 43.5974C57.1336 43.5974 57.5604 43.3332 57.8449 42.886C58.1701 42.3982 58.3734 41.7681 58.4547 41.0568C58.536 40.2844 58.4953 39.6543 58.2718 39.1868C58.0685 38.699 57.7636 38.4755 57.3368 38.4755H57.3571ZM50.8734 27.0933C50.4262 27.0933 50.0401 27.3372 49.7352 27.8454C49.4303 28.3535 49.2474 28.9633 49.1458 29.695C49.0645 30.4673 49.1051 31.0568 49.3084 31.5446C49.5116 32.0324 49.8165 32.2559 50.2433 32.2559C50.7108 32.2559 51.097 32.012 51.3815 31.5446C51.7067 31.0364 51.9303 30.447 51.9913 29.695C52.0929 28.9429 52.0319 28.3332 51.8084 27.8454C51.6458 27.3372 51.3002 27.0933 50.8734 27.0933ZM36.3815 39.0446C36.4425 38.7803 36.3612 38.5568 36.1783 38.3942C36.0157 38.2112 35.7921 38.1299 35.4872 38.1299V38.1706H35.4262C35.2433 38.1909 35.0807 38.2519 34.9384 38.3332C34.349 38.6584 33.9222 39.4104 33.6986 40.569C34.5116 40.6299 35.1417 40.5486 35.6092 40.2844C36.097 40.0202 36.3612 39.6137 36.4019 39.0649L36.3815 39.0446ZM23.9425 38.699C23.4953 38.699 23.1295 38.9226 22.8043 39.3901C22.5197 39.8779 22.2962 40.4877 22.1945 41.2397C22.1132 41.9917 22.1742 42.6218 22.3775 43.0893C22.5807 43.5771 22.8856 43.8007 23.3124 43.8007C23.7393 43.8007 24.1458 43.5568 24.4506 43.0893C24.7758 42.6015 24.9791 41.9714 25.0401 41.2397C25.162 40.4877 25.1214 39.8779 24.9384 39.4104C24.7352 38.9226 24.41 38.699 23.9628 38.699H23.9425ZM18.0075 27.7031C17.4994 27.7031 17.1539 27.947 16.91 28.4145C16.6661 28.9226 16.5035 29.512 16.3815 30.2234C16.3612 30.5893 16.3612 30.9755 16.3612 31.3616C16.3409 31.7275 16.4425 32.0527 16.6051 32.3372C16.788 32.6625 17.0116 32.8251 17.3571 32.8251C17.7027 32.8454 18.0279 32.7031 18.2718 32.4185C18.5157 32.1137 18.6783 31.8088 18.7799 31.4836C18.8612 31.1584 18.9425 30.7722 18.9832 30.3251C19.2067 28.5974 18.8815 27.7234 18.0279 27.7031H18.0075ZM18.0075 27.7031C17.4994 27.7031 17.1539 27.947 16.91 28.4145C16.6661 28.9226 16.5035 29.512 16.3815 30.2234C16.3612 30.5893 16.3612 30.9755 16.3612 31.3616C16.3409 31.7275 16.4425 32.0527 16.6051 32.3372C16.788 32.6625 17.0116 32.8251 17.3571 32.8251C17.7027 32.8454 18.0279 32.7031 18.2718 32.4185C18.5157 32.1137 18.6783 31.8088 18.7799 31.4836C18.8612 31.1584 18.9425 30.7722 18.9832 30.3251C19.2067 28.5974 18.8815 27.7234 18.0279 27.7031H18.0075ZM36.1783 38.3942C36.0157 38.2112 35.7921 38.1299 35.4872 38.1299V38.1706H35.4262C35.2433 38.1909 35.0807 38.2519 34.9384 38.3332C34.349 38.6584 33.9222 39.4104 33.6986 40.569C34.5116 40.6299 35.1417 40.5486 35.6092 40.2844C36.097 40.0202 36.3612 39.6137 36.4019 39.0649C36.4628 38.8007 36.3815 38.5771 36.1986 38.4145L36.1783 38.3942ZM51.8084 27.8454C51.6458 27.3372 51.3002 27.0933 50.8734 27.0933C50.4466 27.0933 50.0401 27.3372 49.7352 27.8454C49.4303 28.3535 49.2474 28.9633 49.1458 29.695C49.0645 30.4673 49.1051 31.0568 49.3084 31.5446C49.5116 32.0324 49.8165 32.2559 50.2433 32.2559C50.7108 32.2559 51.097 32.012 51.3815 31.5446C51.7067 31.0364 51.9303 30.447 51.9913 29.695C52.0929 28.9429 52.0319 28.3332 51.8084 27.8454ZM58.2921 39.2072C58.0888 38.7194 57.784 38.4958 57.3571 38.4958C56.9303 38.4958 56.5238 38.7397 56.2189 39.2072C55.8937 39.695 55.6905 40.3251 55.6295 41.0771C55.5279 41.7885 55.5888 42.4389 55.7514 42.9064C55.9344 43.3738 56.2799 43.6177 56.7067 43.6177C57.1336 43.6177 57.5604 43.3535 57.8449 42.9064C58.1701 42.4186 58.3734 41.7885 58.4547 41.0771C58.536 40.3047 58.4953 39.6746 58.2718 39.2072H58.2921ZM63.8205 26.7072C63.4344 26.7072 63.0685 26.8088 62.8246 26.9917C62.5401 27.195 62.3571 27.4795 62.3165 27.886C62.2555 28.2722 62.3775 28.5771 62.6214 28.8413C62.8653 29.1055 63.1498 29.2275 63.4344 29.2275H64.1458L64.4506 26.7681C64.1661 26.7072 63.8815 26.7072 63.8205 26.7072ZM63.8205 26.7072C63.4344 26.7072 63.0685 26.8088 62.8246 26.9917C62.5401 27.195 62.3571 27.4795 62.3165 27.886C62.2555 28.2722 62.3775 28.5771 62.6214 28.8413C62.8653 29.1055 63.1498 29.2275 63.4344 29.2275H64.1458L64.4506 26.7681C64.1661 26.7072 63.8815 26.7072 63.8205 26.7072ZM58.2921 39.2072C58.0888 38.7194 57.784 38.4958 57.3571 38.4958C56.9303 38.4958 56.5238 38.7397 56.2189 39.2072C55.8937 39.695 55.6905 40.3251 55.6295 41.0771C55.5279 41.7885 55.5888 42.4389 55.7514 42.9064C55.9344 43.3738 56.2799 43.6177 56.7067 43.6177C57.1336 43.6177 57.5604 43.3535 57.8449 42.9064C58.1701 42.4186 58.3734 41.7885 58.4547 41.0771C58.536 40.3047 58.4953 39.6746 58.2718 39.2072H58.2921ZM51.8084 27.8454C51.6458 27.3372 51.3002 27.0933 50.8734 27.0933C50.4466 27.0933 50.0401 27.3372 49.7352 27.8454C49.4303 28.3535 49.2474 28.9633 49.1458 29.695C49.0645 30.4673 49.1051 31.0568 49.3084 31.5446C49.5116 32.0324 49.8165 32.2559 50.2433 32.2559C50.7108 32.2559 51.097 32.012 51.3815 31.5446C51.7067 31.0364 51.9303 30.447 51.9913 29.695C52.0929 28.9429 52.0319 28.3332 51.8084 27.8454ZM36.1783 38.3942C36.0157 38.2112 35.7921 38.1299 35.4872 38.1299V38.1706H35.4262C35.2433 38.1909 35.0807 38.2519 34.9384 38.3332C34.349 38.6584 33.9222 39.4104 33.6986 40.569C34.5116 40.6299 35.1417 40.5486 35.6092 40.2844C36.097 40.0202 36.3612 39.6137 36.4019 39.0649C36.4628 38.8007 36.3815 38.5771 36.1986 38.4145L36.1783 38.3942ZM18.0075 27.7031C17.4994 27.7031 17.1539 27.947 16.91 28.4145C16.6661 28.9226 16.5035 29.512 16.3815 30.2234C16.3612 30.5893 16.3612 30.9755 16.3612 31.3616C16.3409 31.7275 16.4425 32.0527 16.6051 32.3372C16.788 32.6625 17.0116 32.8251 17.3571 32.8251C17.7027 32.8454 18.0279 32.7031 18.2718 32.4185C18.5157 32.1137 18.6783 31.8088 18.7799 31.4836C18.8612 31.1584 18.9425 30.7722 18.9832 30.3251C19.2067 28.5974 18.8815 27.7234 18.0279 27.7031H18.0075ZM18.0075 27.7031C17.4994 27.7031 17.1539 27.947 16.91 28.4145C16.6661 28.9226 16.5035 29.512 16.3815 30.2234C16.3612 30.5893 16.3612 30.9755 16.3612 31.3616C16.3409 31.7275 16.4425 32.0527 16.6051 32.3372C16.788 32.6625 17.0116 32.8251 17.3571 32.8251C17.7027 32.8454 18.0279 32.7031 18.2718 32.4185C18.5157 32.1137 18.6783 31.8088 18.7799 31.4836C18.8612 31.1584 18.9425 30.7722 18.9832 30.3251C19.2067 28.5974 18.8815 27.7234 18.0279 27.7031H18.0075ZM51.8084 27.8251C51.6458 27.3169 51.3002 27.073 50.8734 27.073C50.4466 27.073 50.0401 27.3169 49.7352 27.8251C49.4303 28.3332 49.2474 28.9429 49.1458 29.6746C49.0645 30.447 49.1051 31.0364 49.3084 31.5242C49.5116 32.012 49.8165 32.2356 50.2433 32.2356C50.7108 32.2356 51.097 31.9917 51.3815 31.5242C51.7067 31.0161 51.9303 30.4267 51.9913 29.6746C52.0929 28.9226 52.0319 28.3129 51.8084 27.8251ZM58.2921 39.1868C58.0888 38.699 57.784 38.4755 57.3571 38.4755C56.9303 38.4755 56.5238 38.7194 56.2189 39.1868C55.8937 39.6746 55.6905 40.3047 55.6295 41.0568C55.5279 41.7681 55.5888 42.4185 55.7514 42.886C55.9344 43.3535 56.2799 43.5974 56.7067 43.5974C57.1336 43.5974 57.5604 43.3332 57.8449 42.886C58.1701 42.3982 58.3734 41.7681 58.4547 41.0568C58.536 40.2844 58.4953 39.6543 58.2718 39.1868H58.2921ZM63.8205 26.6868C63.4344 26.6868 63.0685 26.7885 62.8246 26.9714C62.5401 27.1746 62.3571 27.4592 62.3165 27.8657C62.2555 28.2519 62.3775 28.5568 62.6214 28.821C62.8653 29.0852 63.1498 29.2072 63.4344 29.2072H64.1458L64.4506 26.7478C64.1661 26.6868 63.8815 26.6868 63.8205 26.6868ZM63.8205 26.6868C63.4344 26.6868 63.0685 26.7885 62.8246 26.9714C62.5401 27.1746 62.3571 27.4592 62.3165 27.8657C62.2555 28.2519 62.3775 28.5568 62.6214 28.821C62.8653 29.0852 63.1498 29.2072 63.4344 29.2072H64.1458L64.4506 26.7478C64.1661 26.6868 63.8815 26.6868 63.8205 26.6868ZM58.2921 39.1868C58.0888 38.699 57.784 38.4755 57.3571 38.4755C56.9303 38.4755 56.5238 38.7194 56.2189 39.1868C55.8937 39.6746 55.6905 40.3047 55.6295 41.0568C55.5279 41.7681 55.5888 42.4185 55.7514 42.886C55.9344 43.3535 56.2799 43.5974 56.7067 43.5974C57.1336 43.5974 57.5604 43.3332 57.8449 42.886C58.1701 42.3982 58.3734 41.7681 58.4547 41.0568C58.536 40.2844 58.4953 39.6543 58.2718 39.1868H58.2921ZM51.8084 27.8251C51.6458 27.3169 51.3002 27.073 50.8734 27.073C50.4466 27.073 50.0401 27.3169 49.7352 27.8251C49.4303 28.3332 49.2474 28.9429 49.1458 29.6746C49.0645 30.447 49.1051 31.0364 49.3084 31.5242C49.5116 32.012 49.8165 32.2356 50.2433 32.2356C50.7108 32.2356 51.097 31.9917 51.3815 31.5242C51.7067 31.0161 51.9303 30.4267 51.9913 29.6746C52.0929 28.9226 52.0319 28.3129 51.8084 27.8251ZM18.0075 27.7031C17.4994 27.7031 17.1539 27.947 16.91 28.4145C16.6661 28.9226 16.5035 29.512 16.3815 30.2234C16.3612 30.5893 16.3612 30.9755 16.3612 31.3616C16.3409 31.7275 16.4425 32.0527 16.6051 32.3372C16.788 32.6625 17.0116 32.8251 17.3571 32.8251C17.7027 32.8454 18.0279 32.7031 18.2718 32.4185C18.5157 32.1137 18.6783 31.8088 18.7799 31.4836C18.8612 31.1584 18.9425 30.7722 18.9832 30.3251C19.2067 28.5974 18.8815 27.7234 18.0279 27.7031H18.0075ZM18.0075 27.7031C17.4994 27.7031 17.1539 27.947 16.91 28.4145C16.6661 28.9226 16.5035 29.512 16.3815 30.2234C16.3612 30.5893 16.3612 30.9755 16.3612 31.3616C16.3409 31.7275 16.4425 32.0527 16.6051 32.3372C16.788 32.6625 17.0116 32.8251 17.3571 32.8251C17.7027 32.8454 18.0279 32.7031 18.2718 32.4185C18.5157 32.1137 18.6783 31.8088 18.7799 31.4836C18.8612 31.1584 18.9425 30.7722 18.9832 30.3251C19.2067 28.5974 18.8815 27.7234 18.0279 27.7031H18.0075ZM51.8084 27.8251C51.6458 27.3169 51.3002 27.073 50.8734 27.073C50.4466 27.073 50.0401 27.3169 49.7352 27.8251C49.4303 28.3332 49.2474 28.9429 49.1458 29.6746C49.0645 30.447 49.1051 31.0364 49.3084 31.5242C49.5116 32.012 49.8165 32.2356 50.2433 32.2356C50.7108 32.2356 51.097 31.9917 51.3815 31.5242C51.7067 31.0161 51.9303 30.4267 51.9913 29.6746C52.0929 28.9226 52.0319 28.3129 51.8084 27.8251ZM51.8084 27.8251C51.6458 27.3169 51.3002 27.073 50.8734 27.073C50.4466 27.073 50.0401 27.3169 49.7352 27.8251C49.4303 28.3332 49.2474 28.9429 49.1458 29.6746C49.0645 30.447 49.1051 31.0364 49.3084 31.5242C49.5116 32.012 49.8165 32.2356 50.2433 32.2356C50.7108 32.2356 51.097 31.9917 51.3815 31.5242C51.7067 31.0161 51.9303 30.4267 51.9913 29.6746C52.0929 28.9226 52.0319 28.3129 51.8084 27.8251ZM18.0075 27.7031C17.4994 27.7031 17.1539 27.947 16.91 28.4145C16.6661 28.9226 16.5035 29.512 16.3815 30.2234C16.3612 30.5893 16.3612 30.9755 16.3612 31.3616C16.3409 31.7275 16.4425 32.0527 16.6051 32.3372C16.788 32.6625 17.0116 32.8251 17.3571 32.8251C17.7027 32.8454 18.0279 32.7031 18.2718 32.4185C18.5157 32.1137 18.6783 31.8088 18.7799 31.4836C18.8612 31.1584 18.9425 30.7722 18.9832 30.3251C19.2067 28.5974 18.8815 27.7234 18.0279 27.7031H18.0075ZM18.0075 27.7031C17.4994 27.7031 17.1539 27.947 16.91 28.4145C16.6661 28.9226 16.5035 29.512 16.3815 30.2234C16.3612 30.5893 16.3612 30.9755 16.3612 31.3616C16.3409 31.7275 16.4425 32.0527 16.6051 32.3372C16.788 32.6625 17.0116 32.8251 17.3571 32.8251C17.7027 32.8454 18.0279 32.7031 18.2718 32.4185C18.5157 32.1137 18.6783 31.8088 18.7799 31.4836C18.8612 31.1584 18.9425 30.7722 18.9832 30.3251C19.2067 28.5974 18.8815 27.7234 18.0279 27.7031H18.0075ZM18.0075 27.7031C17.4994 27.7031 17.1539 27.947 16.91 28.4145C16.6661 28.9226 16.5035 29.512 16.3815 30.2234C16.3612 30.5893 16.3612 30.9755 16.3612 31.3616C16.3409 31.7275 16.4425 32.0527 16.6051 32.3372C16.788 32.6625 17.0116 32.8251 17.3571 32.8251C17.7027 32.8454 18.0279 32.7031 18.2718 32.4185C18.5157 32.1137 18.6783 31.8088 18.7799 31.4836C18.8612 31.1584 18.9425 30.7722 18.9832 30.3251C19.2067 28.5974 18.8815 27.7234 18.0279 27.7031H18.0075Z" fill="#00AFEF"></path>
<path d="M40 0C17.9472 0 0 17.9472 0 40C0 62.0528 17.9472 80 40 80C62.0528 80 80 62.0325 80 40C80 17.9675 62.0528 0 40 0ZM40 78.4756C18.8008 78.4756 1.52439 61.2195 1.52439 40C1.52439 18.7805 18.8008 1.52439 40 1.52439C61.1992 1.52439 78.4756 18.7805 78.4756 40C78.4756 61.2195 61.2195 78.4756 40 78.4756Z" fill="#00AFEF"></path>
</svg><style>@media (prefers-color-scheme: light) { :root { filter: none; } }
@media (prefers-color-scheme: dark) { :root { filter: none; } }
</style></svg>